<svg xmlns="http://www.w3.org/2000/svg" width="240" height="235.385" viewBox="0 0 240 235.385">
  <path id="bg-pattern-quotation" d="M240,235.385V137.832H194.109a131.762,131.762,0,0,1,4.772-36.768,124.357,124.357,0,0,1,14.135-31.408Q222.373,54.688,240,44.712V0q-33.778,14.781-55.071,38.8a160.885,160.885,0,0,0-31.572,52.657q-10.281,28.637-10.281,83.328v60.6Zm-143.077,0V137.832H51.032A131.762,131.762,0,0,1,55.8,101.063,124.357,124.357,0,0,1,69.939,69.655Q79.3,54.688,96.923,44.712V0Q63.512,14.781,42.037,38.8A159.278,159.278,0,0,0,10.281,91.456Q0,120.093,0,174.785v60.6Z" fill="#69768b"/>
</svg>
