<svg xmlns="http://www.w3.org/2000/svg" width="60.64" height="61.875" viewBox="0 0 60.64 61.875">
  <path id="Icon_awesome-facebook-messenger" data-name="Icon awesome-facebook-messenger" d="M30.95.563C13.83.563.563,13.33.563,30.575a29.6,29.6,0,0,0,9.545,22.2c1.021.937.811,1.48.984,7.264a2.5,2.5,0,0,0,1.135,2.017,2.393,2.393,0,0,0,2.273.175c6.469-2.907,6.552-3.136,7.648-2.832C40.889,64.661,61.2,52.423,61.2,30.575,61.2,13.33,48.071.563,30.95.563ZM49.2,23.658,40.271,38.076a4.567,4.567,0,0,1-3.03,2.088,4.5,4.5,0,0,1-3.561-.849l-7.1-5.423a1.8,1.8,0,0,0-2.2,0L14.8,41.307a1.454,1.454,0,0,1-2.092-1.955L21.63,24.934a4.566,4.566,0,0,1,3.03-2.088,4.5,4.5,0,0,1,3.561.849l7.1,5.422a1.8,1.8,0,0,0,2.2,0l9.586-7.408A1.45,1.45,0,0,1,49.2,23.658Z" transform="translate(-0.563 -0.563)" fill="#fff"/>
</svg>
