<svg xmlns="http://www.w3.org/2000/svg" xmlns:xlink="http://www.w3.org/1999/xlink" width="1923" height="688.027" viewBox="0 0 1923 688.027">
  <defs>
    <clipPath id="clip-path">
      <rect x="1" width="1923" height="688.027" fill="none"/>
    </clipPath>
  </defs>
  <g id="Scroll_Group_6" data-name="Scroll Group 6" transform="translate(-1)" clip-path="url(#clip-path)" style="isolation: isolate">
    <g id="Group_173" data-name="Group 173" transform="translate(0.5 -10321.5)">
      <path id="mount-everest-silhouette-09630b-original" d="M1923.648,975.952v-2.9h-.484c-2.057-10.269-6.778-6.886-7.746-9.665-1.936-5.557-3.268-8.7-7.262-13.651-7.746-9.3-16.7-8.94-26.263-14.376-7.988-4.47-11.74-12.685-17.912-18.363-5.446-5.074-11.861-8.7-17.307-14.135-2.421-2.416-4.357-4.953-7.383-6.282-3.389-1.57-5.446.483-9.44-.966-5.809-2.3-10.529-11.719-14.766-15.705-11.982-11.477-22.269-23.316-35.34-34.431-5.931-4.953-7.383-10.873-11.5-17.4-3.389-5.436-8.835-9.181-13.434-13.772-5.325-5.316-9.2-10.873-13.676-16.672-4.962-6.4-10.893-6.886-17.912-8.215-4.478-.846-8.23-2.416-12.466-3.02-3.873-.6-7.867.6-11.256-1.087-1.331-.6-3.631-3.624-5.446-4.832-1.331-.846-2.9-1.57-4.115-2.3a41.426,41.426,0,0,0-11.014-4.953c-4.115-1.087-7.746-1.57-11.74-3.624-3.268-1.812-5.325-4.591-9.561-4.953-10.772-1.087-13.192,5.074-20.817,10.269-13.192,8.819-29.168,15.947-40.908,25.249,0,.846-14.4,5.92-14.4,5.92-7.262,3.5-13.192,2.416-21.785,2.416-4.841,0-8.472-.362-12.829,1.812-1.452.6-2.542,2.537-3.873,3.383a20.022,20.022,0,0,1-5.083,1.933c-3.873.966-8.714,3.262-12.466,3.383-3.631.121-7.5-1.812-11.5-2.054-4.478-.483-8.472,1.087-12.466,1.087-3.51,0-7.746-1.812-11.377-2.054-8.835-.6-15.976-3.141-23.843-5.316-4.6-1.087-7.383-1.087-11.377-4.108-2.421-1.933-4.357-4.953-7.5-7.007-6.294-3.866-12.224-7.369-18.76-10.752-4.115-2.054-14.281-11.719-17.912-9.665-5.325-2.9-30.257-7.249-32.194,2.054-15.129,1.45-27.958-6.886-42.6-6.04-3.873.121-5.446,1.812-9.44,2.054-3.631.121-5.567-1.087-8.472-1.933-6.536-1.57-10.529-.966-15.734-6.282-8.351-8.457-20.7-10.269-31.226-15.705-4.962-2.537-10.046-6.04-15.371-7.49-7.988-2.416-11.014-5.557-17.791-10.39-12.829-9.3-20.091-19.571-36.551-19.692-9.8-.121-16.7-3.5-23.722-9.423-4.841-3.987-14.887-6.886-21.3-7.973-5.325-.966-4.478,1.329-8.835-3.624-2.421-2.779-3.147-7.369-5.083-9.423-2.784-2.779-8.351-2.537-11.5-5.074-2.784-2.3-4.478-5.316-7.262-7.369-6.778-4.832-15.129-6.524-23.238-7.007-7.262-.362-15.613-4.108-16.823-12.323-5.809-1.329-10.408-5.316-16.339-6.4-6.778-1.329-13.918-2.054-20.817-3.141-7.383-1.087-15.613.362-22.875-.966-6.414-1.087-7.02-6.04-12.708-9.181-5.446-3.02-13.192-3.383-18.759-6.282-4.962-2.416-10.045-4.108-15.129-6.765-5.446-2.9-10.045-4.591-15.129-7.853-6.051-3.624-9.924-7.732-15.371-12.806-10.772-3.383-10.893-5.436-14.766-8.215-2.784,4.953-15.976,16.792-21.664,16.672.847,6.282-8.714,9.785-12.95,13.168-2.3,1.812-4.478,3.383-7.262,5.316-3.873,2.537-5.93,6.524-9.44,9.423-5.325,4.108-12.466,5.8-18.275,8.819-6.294,3.383-11.74,8.819-18.275,11.96-13.313,6.4-23.6,11.839-30.983,25.249-3.389,5.92-8.956,7.249-13.676,13.41a57.128,57.128,0,0,1-15.613,14.859c-6.294,3.987-13.192,5.92-18.639,11.356-5.446,5.557-7.383,12.806-9.8,19.329-7.262.483-4.478,5.074-8.351,8.336-3.147,2.537-9.44,1.812-13.313,2.3a192.564,192.564,0,0,0-26.263,6.04c-8.714,2.537-14.16,7.49-23.722,4.349-4.478-1.45-7.02-3.624-12.466-3.141-3.873.362-7.383,2.416-11.256-.846-4.115,5.316-12.95,5.557-18.759,8.457-7.746,3.624-15.25,3.02-24.206,1.933-17.307-2.416-35.1-.121-51.2-7.49-8.23-3.866-15.129-6.524-24.085-7.973-7.383-1.329-17.307.6-24.206-1.812-3.268-1.087-5.567-3.866-9.2-4.47-3.994-.6-8.472.483-12.466,0-5.083-.483-7.867-2.9-12.466-3.987-4.115-.966-7.5.483-11.256,1.087-7.383,1.329-17.307,3.383-25.3,1.812-5.325-.966-15.25-8.94-18.881-.362-3.147-1.087-5.809-2.9-8.956-3.987-3.873-1.45-6.051-.846-9.8-1.087-6.9-.483-8.835-8.94-15.371-4.953-5.446,3.383-7.867,11.477-13.676,14.859-5.93,3.5-17.186,2.3-23.722,1.57a58.955,58.955,0,0,0-3.51-7.973,15.437,15.437,0,0,0-7.02.846c-2.421.966-2.542,1.812-4.478,2.9-4.841,2.9-6.051,3.5-12.345,4.349-8.835,1.329-18.638.121-27.474-1.812-5.567-1.329-6.9-3.141-11.982,1.933-3.51,3.383-5.809,6.282-9.682,9.423-2.9,2.3-6.415,4.953-8.472,7.973-2.9,3.866-1.936,7.732-4.115,11.477-9.8-.121-14.281,13.168-18.881,19.692-2.057,3.262-3.873,7.973-5.93,10.51-2.9,3.5-7.02,3.5-10.045,7.49-5.809,7.49-5.083,16.309-13.8,21.625-4.115,2.537-10.409,3.624-14.4,7.49-3.873,3.624-3.026,5.92-3.51,10.994-7.746,2.779-7.262,9.423-12.466,13.772-2.784,2.3-6.051,2.3-9.2,3.383-3.147,1.329-6.536,3.866-9.44,5.8-6.778,4.47-9.2,12.927-15.371,17.155-6.051,4.108-15.613,2.9-22.269,4.832-7.746,2.416-14.645,9.665-22.875,10.51-3.994.483-6.051-.6-10.408.966a127.446,127.446,0,0,0-12.466,4.953c-7.383,3.5-10.287,10.994-17.428,14.135-7.02,2.9-16.46,3.383-24.206,5.92-4.478,1.571-9.2,4.832-13.676,6.04-3.631.967-8.23,0-11.74.967-3.631.966-20.091,7.973-17.67,30.444v305.043H1925.1V997.093C1924.253,987.308,1924.253,980.542,1923.648,975.952Zm-962.3-210.691c1.936-4.108,3.51-7.973,5.809-11.96,1.573-2.9,3.389-8.819,7.383-8.336.121-.846-.121-1.812,0-2.537.363-4.349-.484-8.215.847-12.443,1.089-3.866,2.784-6.765,2.421-10.39-.363-4.349,0-8.7,0-12.927,0-4.108-1.331-8.457.121-12.443,1.089-3.5,3.631-6.4,5.446-9.906A45.33,45.33,0,0,0,987,672.6a117.142,117.142,0,0,0,1.815-13.289c.363-4.349,2.057-10.027,6.778-11.96.484,4.108-1.573,9.665-2.542,13.41-.605,2.779-1.815,10.994,0,12.927,0,0,.121,7.853,0,9.423-.363,3.262-.605,3.5-2.3,6.282-2.542,4.108-2.421,8.7-2.421,13.651,0,4.47,1.331,9.906-.121,13.893-.847,2.3-2.3,4.349-2.421,6.886,0,2.3,1.452,4.349.847,6.765-.363,0-.605.121-.847.121-.484,4.349-.484,7.973-2.542,11.839-.968,1.812-2.3,2.779-2.057,4.591.121,2.9,1.573,1.571.363,4.108-1.452,3.262-3.994,6.524-4.841,10.269-.605,3.262.484,6.524-.484,9.906a2.492,2.492,0,0,0-2.542-.966c-1.573.362-3.873,2.416-3.994,4.349-.363,2.3,2.057,3.383,1.936,5.557,0,2.416-2.784,3.987-3.51,6.282-.605,1.57-.605,3.5-1.089,5.074-.968,3.5-3.994,4.832-5.325,8.336-.605,1.812-.605,4.591-1.452,6.282-.968,2.054-3.389,2.537-4.841,4.108-3.147,3.383,0,7.369.605,11.477.605,3.866-1.936,6.765-4.115,9.906-2.542,3.624-5.93,5.92-9.2,8.819-4.115,3.866-3.873,6.524-4.115,11.356-4.115-2.779-5.809,6.765-7.383,9.3-2.421,3.866-5.446,7.007-6.052,11.477a43.451,43.451,0,0,1-4.357,14.135c-2.421,4.47-6.9,7.007-10.409,10.752,1.452-2.9,3.389-5.074,3.631-8.7.363-2.9-.484-6.282.484-8.94.968-2.779,4.478-6.04,4.841-9.3.363-2.9-.121-6.04.363-8.94.968-5.92,3.994-9.906,7.02-15.1,2.421-3.987,5.083-12.685-1.089-14.739.121-4.47,3.631-9.3,6.536-12.443.968-.966,1.815-1.329,2.542-2.537.847-1.087.484-2.416,1.331-3.5,1.089-1.57,4.115-3.383,5.809-4.591,2.542-2.054,3.268-3.383,4.6-6.282,1.452-2.9,2.421-3.02,5.325-4.108,4.6-1.933,5.567-6.886,8.956-10.51-.605-1.57-.605-3.624-1.089-5.316-.605-1.933-1.936-3.624-2.3-5.557C956.141,772.63,959.409,769.127,961.345,765.261ZM335.382,922.433c-5.083,4.349-12.224,4.108-18.154,6.886-9.319,4.47-14.4,15.947-22.148,22.229-8.351,6.886-19.123,10.39-26.747,17.88a146.1,146.1,0,0,1-11.014,9.665c-5.083,3.987-7.988,9.181-11.861,14.135-1.573,2.3-3.51,3.987-4.357,6.765-.847,2.537-.484,5.8-1.331,8.457-1.573,5.557-10.287,6.524-10.409,11.719,9.44-.846.605,6.4-2.058,8.336-5.083,3.5-8.835,6.282-14.645,7.853-2.3.6-5.809,2.416-7.867,2.537-3.631.362-3.51-1.329-6.294-3.262-3.026-2.054-3.51-1.571-6.294-.121-1.331.6-.847,1.812-2.542,2.054-.605.121-2.542-1.329-3.389-1.45-2.9-.483-5.567.846-8.23-.846-1.573-.966-2.3-3.866-4.478-4.47-4.841-1.57-11.982,1.812-17.186,1.933-2.542,0-5.809.483-8.23-.121-2.3-.6-4.115-2.416-7.02-2.779-6.294-.6-13.313-3.5-19.365-1.087-3.026,1.087-5.93,3.5-8.714,5.074s-4.962,2.054-8.23,2.9c-2.9.846-5.567,2.537-8.351,2.779-3.51.362-5.083-1.087-8.472,1.087-10.287,6.886-18.638,21.987-33.162,19.571,3.026-3.02,3.873-7.369,7.5-10.269s7.5-5.8,11.014-8.336c3.147-2.416,5.446-7.369,1.452-9.906-2.9-1.812-11.74.966-10.409-5.436l-4.115-4.832a1.717,1.717,0,0,1-1.331-.121c-3.026-6.282,6.9-14.135,10.045-18.6,1.089-1.571,2.3-3.624,3.51-5.074,1.331-1.571,4.115-3.02,4.962-4.832.847-1.933-.605-3.866-.605-5.316.121-3.262,1.573-6.04,2.9-9.181,1.452-3.866,3.268-7.249,3.51-10.994.363-4.349-.605-8.819,0-13.168.605-4.591,3.994-8.457,4.962-13.168.605-3.866,3.026-8.457,2.784-12.323.121,5.436,3.389,8.94,5.446,13.772,2.3,5.074,3.268,10.873,3.631,16.672.363,4.953-.363,9.906-.605,14.618-.121,2.416.484,5.074,0,7.732-.484,2.779-2.542,4.591-2.057,7.49,3.026.483,5.567-3.02,8.23-3.987,2.9-1.087,6.536-.483,9.561-.846,2.542-8.94-10.893-21.625-4.841-30.2,1.331,1.329,2.3,3.02,3.994,3.866,0-4.108,3.389-4.591,4.357-8.336.847-3.383-.847-8.94,1.573-11.719,3.994,4.832,5.083.362,5.446-3.5.363-3.987,1.573-7.853-.363-11.719a9.611,9.611,0,0,0,5.809,3.383c-.363-5.074,1.815-9.906,6.9-11.839,4.841-1.812,9.8,3.987,15.371.6,3.994-2.416,8.835-5.8,10.045-10.027,1.936-6.4,4.478-10.027,10.893-12.685,6.415-2.537,15.129-6.4,20.212-11.235,6.536-6.04,13.192-13.168,20.212-19.329,4.962-4.47,6.536-8.94,11.014-13.893a48.625,48.625,0,0,1,9.682-8.94c3.51-2.3,3.994-2.3,4.962-6.4.968-3.624,2.057-7.732,4.115-10.873,2.3-3.5,6.9-5.92,8.956-9.423,2.9-5.074,1.089-12.443,6.9-16.672,1.936-1.45,4.357-1.57,6.415-3.262a34.813,34.813,0,0,0,6.778-7.853c3.026-4.832,1.815-12.323,6.415-16.309-.121,4.107-1.936,17.4,4.6,17.276-1.089,3.624-4.478,26.578.605,27.665.605,2.9-1.815,5.8-1.936,8.94-.121,3.5-.363,7.732.605,10.994.847,3.262,2.9,9.3,7.02,6.04,3.631-2.9.363-7.369-.121-10.269-1.331-7.369,3.147-14.859,1.573-22.833-.968-4.953-3.51-10.027-3.51-15.222,0-4.108,1.452-8.215,1.452-12.323a34.614,34.614,0,0,0,10.288-4.108c3.147-2.054,3.51-4.47,7.746-5.92a117.146,117.146,0,0,1,11.982-3.141c3.389-.846,7.383-2.537,10.893-.846,2.058,4.591-2.542,19.088,4.962,18.6,6.536-.483,3.873-10.873,10.409-12.927-.363,10.39-.605,21.021-5.567,30.2-2.784,5.074-9.924,8.215-11.256,13.893-.605,2.779.363,5.074-.847,7.49-1.331,2.779-4.357,4.349-4.6,7.49,10.409.846,15.613-2.054,22.027-9.181a31.721,31.721,0,0,0,6.536-10.752c1.936-4.953-.363-7.49-.968-12.685-.605-4.47,2.9-7.973,2.9-12.443.121-4.349-2.9-7.732-2.058-12.443.847-5.436,3.389-6.4,8.351-6.886a159.593,159.593,0,0,0,18.638-3.987c.121,2.779-.968,7.973.363,10.39a5.068,5.068,0,0,0,8.351.846c2.058-2.054,1.815-5.436,3.026-7.853,1.936-3.5,3.994-3.5,1.573-7.49,11.014.483,22.39-5.436,33.888-4.108.968,3.866,9.319,8.336,13.192,7.369,1.331-5.8,5.083-3.383,8.714-2.779,5.083.966,8.472-1.57,12.95-3.02.605,2.9-1.089,5.316-1.452,7.973-7.383-.483-2.421,6.282-2.784,9.181-.484,4.349-5.809,3.624-5.809,8.457.121,5.074,1.331,6.4-2.058,10.873-1.331,1.812-2.058,2.054-2.542,4.349-.484,2.054.605,4.47-.484,6.4-.968,1.45-3.389,2.054-4.478,3.02-1.573,1.329-2.421,2.416-3.873,3.866-3.389,3.383-6.051,3.866-7.262,8.819a60.379,60.379,0,0,0,0,24.645c-3.026-1.329-6.415.362-9.319-.362-3.631-.6-5.446-2.054-9.44-.846-7.262,2.3-11.014,8.336-14.4,14.618a24.558,24.558,0,0,1-5.809,7.49c-1.452,1.329-3.631,2.779-4.841,4.108-1.452,1.933-1.331,4.47-2.9,6.04-2.421,2.537-6.536,2.9-9.2,4.832-3.389,2.537-3.026,6.765-5.325,9.665-11.377-.846-18.154,16.793-24.69,23.679A42.549,42.549,0,0,1,335.382,922.433Zm253.072,56.9c-1.815,5.92-2.421,12.2-3.994,18.121-1.452,5.436-2.542,11.356-5.93,15.826-3.631,4.832-5.809,8.336-7.746,14.135s-2.057,11.719-5.325,17.4c-3.389,5.92-7.02,3.262-12.708,2.3-10.287-1.57-22.632-2.779-31.952-8.7-5.083-3.383-3.631-7.249-10.53-4.832-4.6,1.812-8.472,5.316-12.345,8.336a2.969,2.969,0,0,1,1.815-3.5c-.605-1.087-.605-3.624-1.452-4.591-1.089-1.45-3.026-.483-3.873-1.45-1.331-1.812-1.452-7.369-.847-9.665.847-3.262,5.325-4.832,5.567-7.732.605-4.108-3.51-3.5-5.446-1.45-.363-5.316,3.147-9.906,5.446-14.618.968-2.3,1.331-4.47,3.147-6.282,2.058-1.933,2.9-1.933,4.357-4.832,1.089-2.416,2.057-5.316,4.115-7.007,2.3-2.054,4.841-.483,7.02-1.933,3.389-2.054,5.083-9.423,6.415-13.168,1.936-5.436,3.873-11.235,5.93-16.792,1.815-4.591,6.9-12.443,5.809-17.4-1.573-6.886-7.383-2.3-9.319,2.054-2.058,4.953-3.994,10.027-6.294,15.222-2.421,5.8-5.809,10.269-8.714,15.343-1.815,3.262-1.815,11.839-7.02,11.477-.968-3.5,1.089-7.973,1.452-11.719.363-4.108,1.573-7.853,2.421-11.839,1.089-4.953,2.784-7.369,6.415-10.873,3.026-3.02,7.383-4.832,7.746-9.181.121-3.262-1.937-7.249-2.9-10.39-1.089-3.624-3.631-6.765-6.294-9.665-.605-.6-1.815.121-2.542-.967-.484-.846.363-1.933-.121-2.779-.605-1.45-1.573-2.779-2.057-4.108-1.452-4.349-1.089-5.92-5.809-7.49-8.23,3.383-9.319,10.39-12.345,17.88-3.51,8.94,3.147,15.584,1.936,24.162-3.873.6-3.51-8.94-5.446-11.719-12.466,6.04,3.873,23.8-1.331,31.894.121-1.812-.484-2.779-2.058-2.537-.484,4.953.363,10.269-.121,15.222-.484,5.316-2.058,10.027-2.784,15.222-.363,2.3-.484,6.4.605,8.336,1.331,2.054,3.389,1.571,4.6,3.5,2.542,3.866-.121,9.786-.484,13.772-.363,4.108,1.573,10.994.484,14.376-1.452,4.47-6.051,4.108-4.962,10.027.968,4.953,3.51,7.973,1.089,13.772-.363.846-.484,3.02-1.815,3.383-2.057.6-1.331-1.571-2.057-1.812a12.3,12.3,0,0,0-5.93,0c-.121,3.02-2.542,5.074-4.478,7.369-7.02-2.779-5.325-11.96-.484-15.947,2.421-1.933,5.446-2.779,7.262-5.436,2.421-3.624,1.089-6.4-3.389-5.557,4.478-3.866,3.026-13.772,1.936-18.242-1.331-5.074-1.815-13.772-9.2-7.973-5.083,3.987-4.478,10.752-6.415,16.43-1.089,3.383-.605,5.92-1.331,8.94-.605,3.383-3.026,5.8-4.357,8.94a25.4,25.4,0,0,1-2.542-.6c.605-2.779,2.542-7.369,1.936-10.269-10.045-7.852-18.638,18.363-24.085,22.591-.121-2.779,2.058-5.316,2.542-8.215a24.323,24.323,0,0,0-.484-8.94c-.847-3.383-7.383-14.135-.847-15.343,1.331-8.215-5.93-14.376-5.567-22.712-3.873-2.054-4.115.362-5.446-4.349-.605-2.537-.484-5.557-1.573-8.215-5.446-1.087-9.8,4.591-14.4,6.282-1.331,5.074,2.784,9.423,1.089,14.255-1.452,4.349-3.51,8.457,1.573,11.477,3.994,2.416,9.8.483,13.8,3.383,5.325,3.866,3.873,7.853,2.9,12.927-5.567-.483-6.051,4.953-10.893,6.524,5.93,7.732-16.218,9.906-20.091,8.7-2.421-.846-4.357-1.812-7.262-1.933-2.784-.362-2.421,1.329-4.6-1.329-.605-.846-.484-2.416-.968-3.383-.484-.846-1.815-.6-2.058-1.329-.847-1.933-.363-4.108-.605-6.4-4.357-1.45-10.287-3.5-7.383-8.94,5.446,1.45,6.051.483,4.115-5.074-1.089-3.383-2.421-6.4-.605-10.027,1.936-3.987,5.567-5.074,3.994-9.906-.484-1.329-1.573-3.5-2.9-4.108-2.3-.966-3.026.483-5.325,1.329-.847-3.624-7.5-.362-10.409-3.5-2.542-2.9-3.026-6.4-1.331-9.423,3.631-6.765,14.16-9.423,12.95-18.121-.605,0-1.331-.362-1.936-.121-.484-1.812-.968-3.866-1.573-5.436-.605-1.329-3.389-3.262-3.51-3.987-1.573-5.074,4.841-5.8,7.383-9.3,3.026-4.108-1.573-7.49-5.567-4.591-2.542,1.933-4.357,9.423-7.02,9.423.484-3.141-1.936-4.832-1.573-8.215.363-3.5,1.936-4.832,4.841-6.4,1.936-1.087,5.809-1.812,7.262-3.866,2.3-3.141-.363-3.5-2.058-6.282,2.421-1.812,4.6-4.591,4.115-7.732,1.936-.846,5.809-3.02,6.778-5.074,1.573-3.383-1.815-7.369-1.331-10.269.363-2.054,1.331-3.02,1.573-4.832.121-1.812-.484-3.624-.121-5.557.484-3.624,2.057-6.4,2.3-10.269,3.873-1.57,9.682-3.866,13.192-5.8,2.784-1.45,4.478-3.987,6.294-6.524a3.831,3.831,0,0,1,2.421-3.02,17.645,17.645,0,0,0-2.421,3.02,2.9,2.9,0,0,0,.484,1.933c1.815,2.9,2.9.362,5.083.483,5.325.483.847,2.779,0,6.4s1.815,6.886,1.452,10.39c-.363,4.591-3.51,3.624-5.567,6.886-1.452,2.537-.968,7.973-1.452,10.994a49.28,49.28,0,0,0-.605,11.235c0,1.933.363,2.537-.121,4.591-.363,1.45-1.452,2.779-1.815,4.349-.605,3.624.484,7.249.605,10.873,2.3-2.054,2.057-5.557,4.6-7.369,2.542,4.591,2.9,11.839,2.9,17.276,0,6.4,1.452,11.719,1.452,18.121,0,6.524-1.089,12.443,7.5,10.873,4.962-.846,7.5-5.316,8.472-10.269,1.089-6.04,3.389-12.323,2.9-18.725-.484-4.953-1.452-10.873-1.452-16.068,0-11.718,7.746-20.779,9.8-32.014,1.089-5.92-3.51-8.457-5.446-14.135-2.3-6.765,2.542-6.282,3.994-11.719.605-2.3-.363-6.04-.847-8.336-.968-3.866-.968-3.624.363-7.49.847-2.416.605-5.074,1.331-7.732.605-1.933,2.542-3.624,3.389-5.557,5.567.362,5.083-2.9,7.746-6.282,1.815-2.3,6.051-3.383,7.383-5.92,1.089-2.3-.484-9.665-1.452-11.719-1.331-2.9-4.841-4.349-.484-7.49,2.3,1.329,4.357,5.316,6.294,7.369,1.331-.6,6.778-3.02,7.383-4.108.968-1.812-.968-6.886-1.331-8.819-.847-4.47-5.93-10.027-4.841-14.376,6.294-.483,8.835,10.994,11.256,15.826,3.147-2.3,8.351-1.57,9.561-6.04,1.089-3.624-2.421-7.853-3.631-11.235-1.573-3.866-3.873-7.49-5.325-11.235-1.452-3.987-.484-8.215.484-12.323,1.573-6.04,4.115-5.074,5.446.121.484,2.054.121,4.832.968,6.886.847,1.933,2.9,3.383,3.631,5.436,1.936,4.349.847,8.336,3.873,12.443,2.784,3.987,5.083,4.832,9.561,3.5.605-7.369-2.542-14.859-5.325-21.5-.968-2.3-2.542-3.262-3.026-5.557-.363-1.812.121-3.866,0-5.557-.363-3.5-1.815-6.524-1.331-10.269,3.873-.6,7.02,6.4,8.835,8.94,1.331,1.933,3.026,3.866,3.631,6.282.605,2.537-.847,5.074-.605,7.49.968-1.812,3.51-2.3,4.841-3.987,1.331-1.812,1.331-3.383,2.421-5.074,2.058-3.383,8.351-7.853,11.982-9.665,2.057-.966,5.325-1.933,7.746-1.45,1.936.362,3.147,2.537,4.841,2.9,3.873.483,9.2-6.4,12.466-.846l-.605,5.557c0,3.987.121,7.973-.847,11.839-.968,3.624-2.9,6.524-3.51,10.39-.605,3.5-2.784,6.886-2.542,10.39.121,3.383,3.51,6.886,3.51,9.785,0,.846-1.937,3.624-2.3,4.832a45.8,45.8,0,0,0-.605,5.557c-.484,2.9-2.421,6.524-1.452,9.785,1.331,3.987,3.873,4.832,3.51,9.786-.363,3.141,0,7.249-2.784,9.181-2.421,1.57-6.294.121-7.5,3.5-.847,1.933,1.452,5.557,2.057,7.49,2.3,5.436,1.936,11.719,5.325,16.792,1.573,2.416,4.357,3.141,5.93,5.074,1.331,1.57,1.815,4.47,2.421,6.4,2.057,6.886,7.867,8.7,12.224,13.893,7.262,8.7,7.262,22.35,2.421,32.014-3.389,6.765-5.083,13.168-7.746,20.175-2.542,7.007-7.383,11.235-6.778,19.329,4.357.121,10.53-13.651,12.466-17.155a160.033,160.033,0,0,0,8.714-16.188c1.452-3.262,9.44-16.43,9.2-6.4-.121,5.074-5.083,10.752-4.6,15.947,2.9-.362,4.115-5.8,5.567-8.215,1.936-3.383,5.446-8.94,8.835-10.51.121,2.9,0,5.92.121,8.819,1.331-.121,2.784.362,3.994.121.484,6.282-2.058,10.269-5.325,15.343-1.331,2.054-3.389,5.074-3.873,7.369-.605,3.262.847,4.108,2.3,7.007,2.784,5.92,3.51,10.027.847,15.947-2.3,4.953-4.962,10.51-6.414,15.705,1.815-5.074,7.867-10.51,11.014-15.222a29.074,29.074,0,0,0,4.115-8.215c.847-2.779.121-6.886,1.452-9.182,1.815-3.383,4.478-3.262,5.083.846C591.722,971.723,589.3,976.556,588.454,979.334ZM874.083,926.42c-4.478-1.329-15.613-4.349-17.307-9.423a10.767,10.767,0,0,1-2.784-.121c-3.994-1.57-9.561-3.5-12.345-7.732-1.452-2.3-1.331-4.953-3.51-7.249-1.452-1.45-3.51-1.812-4.841-3.383-2.9-3.5-4.115-11.96-4.841-16.43-1.089-6.765-2.421-8.94-7.383-13.772-3.389-3.383-7.02-6.282-10.772-9.423-3.389-2.779-11.5-4.953-13.313-8.94-.847-2.054.363-6.524.484-8.819.121-2.9,1.452-5.436,1.452-8.336-.121-5.436-6.536-9.785-8.23-14.618-1.452,4.591-2.421,7.973-5.083,12.443-2.9,4.591-3.994,7.007-3.994,12.443,0,1.329-.847,5.92.121,6.765,1.573,1.812,3.994-.6,6.051-.6,8.351.483-.968,5.436-4.115,6.886-5.446,2.3-12.224,2.416-11.256-5.436.363-1.812,1.331-3.02,1.452-4.832.121-1.45-.605-2.054-.605-3.5,0-2.537.968-5.074,1.452-7.732,1.815-11.235,3.994-22.712,4.841-33.947.605-8.215-1.452-9.906-6.9-14.739-3.51-3.02-6.051-10.027-2.542-14.255.847-.966,2.784-1.087,3.389-2.054.847-1.329.121-2.3.605-3.624.847-2.537,1.089-5.074,3.268-7.249,3.51-3.5,10.893-6.524,9.2-12.927-4.357,2.779-9.44,3.383-13.918,5.316-3.51,1.571-6.9,3.141-10.772,4.47-1.815.6-8.714,3.383-9.319,5.436-.484,1.45,2.058,3.866,1.573,6.282a5.866,5.866,0,0,1-3.51,4.349c-.484,4.832-2.542,9.544-2.3,14.376.484,6.04-.968,7.007-5.083,11.718-3.631,4.108-3.026,5.92-3.994,11.235-.484,2.537-2.421,3.987-2.9,6.282-.363,1.329,1.089,4.47.847,6.282-.605,4.349-4.962,8.819-4.841,13.168.363,3.624,6.9,10.994,10.045,12.685,3.631,1.933,9.2,1.45,13.313,3.383,2.9,1.45,4.357,3.5,7.02,5.316,2.3,1.45,5.446,1.45,6.294,4.107-1.936,1.571-3.51-.483-4.841.121-1.936.966-.968,1.329-2.058,2.9-1.573,2.3-1.815,4.591-4.841,6.282-3.026,1.571-15.25,3.262-17.67.121-1.331-1.45-.968-5.074-2.057-7.249-2.057-3.5-4.478-4.832-5.93,0-1.573,4.953,1.815,12.443-.605,16.672a5.98,5.98,0,0,1-.968-3.141c-.121,3.141-.968,7.853-2.057,9.423-1.936,3.262-5.93.966-8.23,4.349-3.389,5.436,2.3,10.873-2.9,15.947-4.962,4.953-7.988.6-9.8-4.349-1.452-3.987-.363-12.443-3.389-15.343-1.573-1.45-6.051-.846-8.472-1.933-2.9-1.329-5.446-3.383-8.351-4.47-9.8-3.866-3.873,7.007-10.287,6.282-4.478-.6-8.472-9.906-10.045-13.651-1.089-2.537-1.815-4.108,0-6.524,1.936-2.416,3.51-1.57,6.294-2.537.847-.362,5.567-3.383,5.93-3.987,1.089-2.416-1.573-4.349-2.3-6.4-2.057-5.92,1.936-10.994-2.057-16.672-1.815-2.537-3.51-3.987-4.6-6.886-1.089-2.779-.968-5.436-2.057-8.215-1.815-4.47-4.357-11.235-8.472-13.893-3.51-2.3-12.466-7.007-13.313.6-.363,2.9,2.784,7.249,3.994,9.423a65.777,65.777,0,0,1,4.478,9.3c2.421,5.8,5.567,11.719,5.446,18.121-.363,9.665-7.383,1.45-8.351-3.5-.968-4.108-.121-14.618-5.567-15.826-2.421,3.262,2.421,12.806,2.9,16.672.363,2.537.605,6.524,0,8.94-.968,3.866-1.452,3.02-4.841,2.537-12.708-1.812-17.67-15.222-25.174-24.041-7.262-8.457-15.25-16.43-20.7-26.578a85.078,85.078,0,0,0-10.53-15.222c-2.3-2.537-3.873-5.316-6.778-6.282-2.542-.966-5.809,0-7.746-2.537.121,2.779,1.089,4.47,1.937,6.886,1.331,3.5,1.936,3.383,4.962,4.591,5.446,2.416,6.778,6.04,9.561,10.51,3.268,5.074,6.778,10.027,10.045,14.859.968,1.329,3.51,3.5,3.994,4.953.605,2.416-1.331,6.524-3.994,6.282-1.815-7.007-6.778-11.719-9.8-17.88-2.9-6.04-4.962-11.839-10.045-16.672h-.121c-4.6.6-11.014-3.383-14.16-6.282-4.6-4.47-13.918-8.7-14.645-14.618,0,0,1.937.966,5.567-.6,3.994-1.933,6.051-4.349,10.53-1.57,1.452.966,2.542,3.624,4.115,4.108,1.573.6,3.631-.362,5.446,0,5.446.846,10.772,4.832,15.855,5.557a9.391,9.391,0,0,0-.484-2.537c3.147,1.57,8.714,6.765,12.345,6.04.121-4.832,7.988-2.054,11.014-1.933a23.353,23.353,0,0,0,14.16-3.987c5.809-3.866,12.95-2.779,19.365-4.953,4.115-1.45,5.809-2.779,9.8.483,3.268,2.537,5.446,7.007,7.867,10.39a158.078,158.078,0,0,1,12.345,20.175c4.841-1.571.847-8.457-.363-11.235a32.95,32.95,0,0,1-3.147-13.41c1.815,2.9,2.9,5.92,5.083,8.7,2.421-1.57-.363-5.8,1.815-7.007,2.3-1.45,3.631,2.779,4.841,4.349,3.631,4.953,7.262,9.906,10.409,14.859,2.9,4.349,5.93,7.369,7.867,12.323,2.3,5.8,5.809,7.853,10.288,11.719,1.936-5.074,3.389-12.323,2.3-17.88-.484-2.9-2.3-5.436-3.994-7.732-1.452-1.933-5.325-4.832-4.962-6.886.363,0,.847-.121,1.089-.121.605-2.779-1.573-3.624-1.936-6.04-.484-2.779,1.936-5.8.847-8.336s-11.014-4.47-14.4-5.557c2.421-1.57,5.325-1.45,8.23-2.3,3.389-.966,6.414-3.262,9.8-4.107,6.415-2.054,13.918-1.087,20.212-3.383,5.567-1.933,9.924-6.282,15.976-7.732,3.268-.846,5.446-.846,6.9-4.108,1.331-2.9.847-5.316,2.542-7.853,3.147-4.47,7.746-8.819,11.256-12.927,3.873-4.47,9.319-6.886,14.16-10.269,5.325-3.866,8.472-9.906,14.644-12.2,7.02-2.537,8.472-4.47,12.829-10.39,4.115-5.557,6.293-12.323,11.256-17.276,4.6-4.591,11.377-6.524,16.7-10.39,4.841-3.5,8.956-6.4,14.766-8.215s11.861-.483,17.307-3.383c5.325-2.9,9.319-8.7,12.708-13.289,3.994-5.557,8.23-8.336,13.676-12.685,3.873-3.262,7.746-7.007,11.861-9.665,5.083-3.383,7.867-3.624,11.014-8.819,1.936-3.141,9.682-12.323,11.982-9.786,3.268,3.5-.847,11.356-2.057,14.618-1.089,2.779-1.089,4.47-1.452,7.732-.363,3.141-1.573,3.866-2.542,6.4-2.3,5.074.968,10.269.484,15.705-6.294-1.087-5.809,12.323-6.051,15.947-.847,7.49-7.988,12.443-11.014,19.329-5.93-5.436-8.472,4.953-8.956,9.181-.605,5.074-3.631,10.994-9.561,10.51-.847,8.819-4.841,10.027-12.708,13.651-5.567,2.537-9.2,3.866-15.371,4.349-10.408.846-18.275,10.51-29.168,9.786-3.631-.362-10.409-4.47-13.676-1.933-1.089.966-3.026,5.557-2.784,6.765.484,1.812,3.268,4.108,3.994,6.282,3.631,10.994,5.567,23.679,12.466,32.618a21.442,21.442,0,0,1,3.51,6.282c.605,1.812.484,6.282,1.331,7.732,2.9,4.47,10.045,3.866,13.918,7.007,8.835,7.249-.363,23.2-8.23,28.148-1.331-2.3-2.057-3.02-1.573-5.436.363-1.812,1.815-3.02,2.058-4.832.847-4.591-1.089-9.906-6.051-10.39-.121,2.537-.968,7.49-3.994,8.336,1.331-1.812,1.331-3.987.968-6.282-1.573-.121-3.873.362-5.446-.121-2.421-.6-1.573-1.329-3.389-2.3-1.815-1.087-.847-1.57-3.631-1.933-1.815-.121-2.9.966-4.841.6-2.3-3.262,1.815-7.007-1.573-10.027-3.994-3.624-3.389,1.087-5.809,3.262-4.6-2.779-2.542,8.94-8.351,4.47-3.389-2.537-2.421-8.215-2.784-11.839-2.9.6-4.962,9.544-6.052,12.443-1.936,4.832-2.784,8.7,0,13.168,4.962,8.336,16.7,2.9,21.543,12.443,2.3,4.349,3.389,10.027,5.809,13.893,1.089,1.812,4.6,3.987,6.9,3.987.847,0,2.784-.846,3.389-.6,1.573.483.605.362,2.3,1.57.968.846,1.573,2.416,3.51,3.383,1.331.6,2.9.966,4.115,1.57a42.8,42.8,0,0,1,7.746,3.987c3.51,2.537,7.383,5.92,9.561,9.906,3.389,5.92,1.331,11.477,3.51,17.4,2.3,5.92,8.956,9.181,11.377,15.222C875.778,900.567,880.377,919.534,874.083,926.42Zm22.632-149.078a50.37,50.37,0,0,0-4.357,3.5,15.494,15.494,0,0,0-3.026,4.832,15.157,15.157,0,0,1-3.026,4.591c-2.784,3.262-2.3,6.524-3.994,10.027-1.573,3.383-4.357,5.8-5.809,9.423s-1.331,7.732-1.089,11.839c-9.319-4.953,6.9-27.544-2.542-29.6,1.815-3.262,2.542-4.349,2.421-8.215,0-2.416.363-5.316-1.089-7.853-1.573-2.779-2.9-3.5-1.815-6.886.484-1.812,1.331-2.9,1.452-4.591.121-1.329-.484-3.02,0-4.107.847-2.416,2.9-3.02,3.631-5.8.968-3.5,1.089-4.832,4.115-7.369,4.115-3.383,4.841-11.719,10.893-11.96,1.936-5.074,6.415-9.785,9.924-13.893a57.65,57.65,0,0,1,12.829-11.356c3.994-2.779,7.5-6.04,11.256-9.181,4.115-3.5,8.835-8.7,9.2-14.376.847,2.3.847,4.953.968,7.49,5.325-3.383,6.9-9.181,9.319-14.376a25.956,25.956,0,0,0,2.542-7.853c.363-2.054,0-6.765,1.936-7.732,1.573,2.9,2.3,10.873.605,13.893,2.784-1.57,3.873-5.92,5.083-8.819,1.089-2.537,2.784-4.953,3.631-7.732.121,1.57-.847,2.9-1.089,4.47a19.808,19.808,0,0,0-.484,4.832c0,3.624-1.331,6.282-.968,9.786.363,0,.605.121.847.121.121,1.45-.484,3.383-.968,3.5l-1.089,6.282c-1.089-.483.121,1.812,0,3.141S954.93,695.8,954.446,697c-.363.966-.484,2.779-1.089,3.5-.968,1.45-2.057,1.57-3.389,2.779-2.784,2.537-3.873,3.624-3.994,6.886,0,1.812.968,1.45-.363,3.02-.605.6-3.147,1.087-3.994,1.57a25.084,25.084,0,0,0-7.383,8.819c-1.452,2.9-.847,6.04-1.815,8.819a22.721,22.721,0,0,1-2.9,5.316c-.968,1.087-2.421,1.329-3.026,2.537-1.331,2.3-1.331,5.316-2.784,7.853-2.057,3.383-4.357,7.853-7.383,10.269-1.815,1.329-3.994,1.812-5.567,2.9-1.452.966-2.057,2.416-3.631,3.383-3.51,1.933-7.867,1.57-8.351,6.886C898.41,774.684,898.894,775.167,896.716,777.342ZM1005.279,1025.6c-3.631,2.779-5.809,0-9.319-2.054-3.873-2.3-4.6-3.383-6.414-7.007-3.147-.846-2.9-2.3-5.325-4.108-1.452-1.087-4.841-1.933-6.536-2.3.121-.483-.363-1.45-.121-1.933-3.631-.6-5.567,3.866-9.44,2.779-1.815-.483-2.9-1.812-4.478-2.416-1.815-.6-3.631-.362-5.567-.483-.121-3.383,3.147-7.49,5.325-10.269,2.058-2.779,3.994-6.282,6.778-8.336,2.542-1.933,4.962-3.262,7.5-5.436,2.542-2.3,5.93-4.108,7.988-7.007,2.057-2.779,3.873-5.557,5.93-8.457,5.325-6.765,10.287-14.859,16.339-20.658,2.542-2.416,5.93-6.765,9.319-7.973,2.3-.846,4.115,0,6.293,0,1.936,0,3.51-.6,5.567-.483-.484,4.591,2.3,1.933,4.6,2.054-.847,3.866-3.51,7.007-2.9,11.356a66.215,66.215,0,0,1,6.051-7.249c3.026-3.02,5.325-3.262,8.835-4.591,6.293-2.537,8.835-10.027,8.351-16.672a9.734,9.734,0,0,0-4.962.483c.363-5.8,2.9-6.886,6.051-9.906,2.542-2.416,8.714-1.45,11.5-3.5,3.147-2.416,7.02-3.987,9.924-6.765,1.573-1.57,7.988-7.007,7.5-9.423-6.536-1.45-.484-2.779-1.573-6.765-1.331-.121-2.784,0-3.994-.121-.363-2.054.968-3.624,1.937-5.316.605-.966,1.815-2.054,2.057-3.02.363-1.087,0-1.329.121-2.054.847-3.383,4.841-8.7-1.453-8.94a12.356,12.356,0,0,1,2.421-4.47c-.363,0-.605-.121-.968-.121-.121-1.812,1.089-3.866-1.573-4.108,1.452-4.953,7.383-11.356,11.861-13.893,2.9-1.57,6.778-2.416,8.956-4.108,1.452-1.087,2.542-2.779,3.994-3.866s3.026-1.933,4.357-3.02c2.421-2.3,4.6-6.282,3.51-9.423-.968-3.02-3.026-4.591-2.542-8.336.484-3.5,2.542-8.7,5.083-11.235,1.936-1.933,6.778-4.108,5.809-7.49-1.573-.362-2.542.846-4.115.966-1.089.121-2.421-.483-3.631-.483s-2.784.6-3.631.6c-1.331,0-1.573-.483-2.784-.483-4.841-.483-8.956,2.416-13.313,2.416-2.057-4.953-4.478-2.416-8.956-3.5-2.421-.6-1.936-1.933-3.147-3.02-1.573-1.329-3.389-.6-5.325-1.087-4.115-1.087-4.115-5.316-7.383-7.732-2.3-1.812-3.389-5.557-5.931-6.4,1.331-5.316,3.994-10.752,9.2-11.96,0-2.9-2.3-3.141-3.51-5.316-.968-1.571-.605-3.5-.605-5.557,0-2.779.363-3.02,1.089-5.8.605-2.3-.484-3.624.968-5.8,2.784-3.5,7.988-3.5,8.835-8.336.605-3.987,1.452-7.369,5.809-3.383a12.99,12.99,0,0,0-2.3-8.7c-1.089-1.933-2.421-3.383-1.937-5.074a32.309,32.309,0,0,1-5.809,7.853c-.847.846-1.815.121-2.542,1.087-.605.6-.605,1.933-1.089,2.537-.847,1.087-1.452,2.537-2.9,1.57.121-.362.121-.483.363-.6a71.8,71.8,0,0,0-6.778,8.215c-1.573,2.537-2.3,5.8-4.357,7.973-.847.966-3.268,1.57-3.994,2.9-.968,1.57-.605,3.5-1.331,5.074-.484,1.087-2.057,4.47-3.026,5.074-1.815,1.329-3.631-.121-4.841,2.537-.363,0-.484.121-.847.121a8.43,8.43,0,0,0-.363,1.45c-2.421,1.812-5.083,5.8-5.567,8.819-2.421.846-5.567,4.591-7.383,6.765-1.936,2.3-6.415,6.524-7.02,9.423-.968,4.108,4.962,6.04,7.02,8.819a42.323,42.323,0,0,0,2.9,3.624c.605.6,1.815,1.57,2.058,2.537.363.6-.121,1.812,0,1.812a23.618,23.618,0,0,0,6.293,9.181c3.026,2.9,4.357,5.92,5.446,10.027,1.815,6.4,1.573,14.739,1.089,21.746-1.936.483-3.994,1.57-6.051.966-.605-1.933-1.816-3.141-2.3-5.074-.484-2.416.363-4.591.484-6.765.121-2.416.121-4.832-2.542-5.316-2.3-.362-3.389,1.57-5.567.966-.968-4.591-5.446-4.591-8.835-6.282a9.711,9.711,0,0,1-4.115-3.5c-1.452-2.3-.484-3.5-2.9-3.866s-10.045,1.812-11.74,3.383c-2.3,2.054-2.3,6.282-4.841,8.819-5.809,5.557-12.224,11.839-15.25,20.175a68.866,68.866,0,0,1-4.962,9.906c-.484.966-2.421,3.987-2.542,4.832-.484,2.054,1.331,3.5,1.452,5.557-1.815.121-3.51.483-4.841-.846-2.421,3.02-3.994,6.4-6.051,9.786-2.784,4.108-5.93,8.215-8.472,12.443a115.507,115.507,0,0,0-6.294,12.927c-1.815,4.349-5.325,7.732-7.02,11.96-.968,2.416,0,4.953-.605,7.369a29.379,29.379,0,0,1-3.147,6.524c-1.452,2.416-3.873,4.107-5.809,6.4-1.815,2.3-3.026,4.349-4.6,6.765-4.115,6.524-8.956,12.927-11.5,20.3-.605,1.933-1.331,4.953-3.268,6.04-1.331.846-2.421.121-3.631.6-.968.362-1.089.966-2.057,1.45a21.2,21.2,0,0,0-7.867,6.4c-1.452,1.933-2.3,4.349-5.083,3.5.484-2.537,2.9-5.557,3.994-8.336,1.452-3.383,4.478-5.074,6.294-8.336s2.421-7.853,4.115-10.994c.968-1.812,2.9-2.416,3.873-3.987.847-1.45.605-3.987,1.089-5.8,1.452-4.349,3.51-8.819,5.083-12.927,1.573-4.47,4.357-8.7,5.809-12.927,1.452-4.47,2.9-9.182,5.567-13.168a75.488,75.488,0,0,0,5.809-9.906c1.452-2.779,4.962-5.8,4.115-9.3-1.089,0-2.421-.121-3.51-.121a51.072,51.072,0,0,1,3.994-10.873,8.716,8.716,0,0,1,2.542-3.02c.847-.6,2.421-.846,2.9-1.45,1.089-1.45,1.452-3.5-.484-4.832.121-.362.363-.6.484-.966.484-3.02,4.841-8.336,7.262-9.423,2.421-1.329,3.51-.6,5.083-3.624.968-1.812.968-3.624,1.331-5.8.605-4.349.968-8.94,2.9-12.927,1.331-2.779,1.936-3.02.847-5.92-.847-1.933-2.421-2.054-1.089-4.47.968-1.933,2.9-3.02,3.994-5.316.968-1.933,1.573-3.624,3.268-5.316,1.815-1.57,2.9-2.054,3.994-4.349.847-1.812.968-3.383,2.3-5.074,1.452-2.054,3.51-3.5,5.083-5.316.847-.846.968-.362,1.573-1.57a21.136,21.136,0,0,0,.484-3.987c.363-2.054,2.9-11.235,6.414-9.181,1.089-.6,4.6-2.416,5.93-1.933,1.452.6,2.421,3.866,3.389,4.953a18.619,18.619,0,0,1,1.573-1.45c3.51-2.3,5.93-7.853,6.778-11.477,1.089-4.349-1.089-8.819-1.815-12.927-.605-4.832.605-8.215-2.3-12.323-2.784-3.987-3.389-4.349-.847-8.819,2.057-3.624,3.631-7.732,6.052-10.994.847-1.087,2.9-3.02,3.51-4.349.847-1.812-.484-4.349,0-6.282.847-3.02,8.956-4.47,6.9-8.457-.847-1.45-3.994-1.329-4.841-2.9-.847-1.45-.121-6.04.484-7.369l.484-2.537a35.2,35.2,0,0,1,3.147-15.1c.605-1.57,2.058-3.02,2.9-4.47.605-1.087.605-3.02,1.331-3.987,1.937-3.02,3.994-1.329,6.778-2.3,3.026-1.087,1.573-3.624,2.784-6.04s3.631-3.383,6.051-3.624c6.536-1.087,8.472,4.108,8.351,9.786,7.5-5.074,11.5,3.5,15.129,8.336,2.3-1.57,2.421-4.832,1.573-7.007,2.057-.6,5.567.6,7.746.966,2.9.483,5.567,1.329,8.351,1.57a14.83,14.83,0,0,0,8.835-1.812c2.421-1.329,4.962-5.074,7.746-4.47a17.739,17.739,0,0,0,0,2.537c1.089,4.349-.847,6.886-3.026,10.39-2.542,3.987-3.994,5.92-1.573,10.269,2.057,3.866,1.089,7.732,2.542,11.477,1.089,3.383,3.994,5.92,4.478,9.423.484,3.262-2.057,9.423.847,11.718,1.815,1.45,4.6.121,6.778,1.57,1.815,1.329,2.421,3.383,4.115,4.832,2.421,1.812,2.784,1.087,2.542,4.591a23.007,23.007,0,0,0,.484,5.8c1.331,3.866,4.478,5.316,7.746,7.369-2.784,3.987.121,5.074.605,9.181a65.73,65.73,0,0,1,.121,10.873,81.409,81.409,0,0,0,15.371-11.356c9.44-8.819,14.4-21.746,24.69-30.2,1.936-1.57,11.5-8.457,10.893-1.57-.484,3.624-5.325,6.886-7.02,10.027-2.3,3.866-2.542,7.853-5.809,10.873-1.452,1.45-3.389,3.02-4.115,5.074-1.331,3.5,0,2.779,2.421,3.624,3.873,1.45,7.383,2.054,8.956,6.282,1.331,3.383-1.331,4.832-3.268,7.853-1.089,1.812-3.026,6.04.968,5.316-.605,2.9-10.771,13.651-5.083,15.947,4.115,1.57,7.02-7.49,7.746-9.785.484-1.571.121-1.812,1.573-3.624.968-1.087,2.3-2.416,3.268-3.624,2.057-3.141.484-3.624.484-6.765-.121-5.316,7.02-5.436,6.415-.6,1.573-.362,1.573.966,2.421,1.087s1.573-.121,2.3,0c3.026.483,4.357.846,5.931,3.262,2.3,3.5,1.089,6.886-1.331,9.786-2.784,3.262-5.567,6.282-7.746,10.027-.968,1.812-2.542,4.108-2.057,6.282.363,1.45,1.815,2.416,2.421,3.866,1.331,2.537.847,1.933-.484,4.47-.605,1.329-2.3,4.349-1.936,5.557.605,1.812,3.631,1.933,4.478,3.866.847,2.054-.484,1.933-1.331,3.987-1.573,3.624-1.089,8.215-.363,11.719.605,2.537.484,2.537-.847,4.953-.605,1.087-3.631,3.866-3.631,5.316,0,.483,2.784,4.591,3.026,4.832,1.937,1.087,3.026-1.087,5.325-.483.121,1.812-.363,3.5.605,5.074,1.089,1.933,2.057,1.57,4.115,2.537.968.362,3.51,1.57,3.994,2.416,1.452,1.933.121,3.02,2.784,4.47,1.452.846,3.268.362,4.6,1.329,1.452.966,1.452,2.054,2.3,3.5,2.058,3.383,5.446,2.779,7.5,5.8,1.331,1.57,1.331,2.537,3.147,3.866,1.331.846,2.421.966,3.51,2.054,2.9,2.779,3.631,7.007,6.9,9.786,3.389,2.9,3.51,3.262,4.6,7.369.847,3.02.605,1.812,3.268,3.262a7.583,7.583,0,0,1,3.51,3.5c-2.542.846-6.293-.846-9.2-.483s-6.778.846-8.956,1.933c-1.089.483-1.937,1.45-3.026,1.812-.968.121-2.058-.846-3.147-.6-.968.121-.847,1.57-1.573,2.054-.968.362-2.057,0-3.026,0-4.962.6-9.319,2.416-14.161,3.624-1.573.483-4.6,1.45-6.293.966-1.815-.483-3.389-2.9-4.841-3.987-3.631-2.537-6.9-3.624-7.746-8.94-.484-3.5.121-4.349-2.057-7.249a7.088,7.088,0,0,1-2.057-5.316c-.363-4.591-1.089-7.732-4.6-10.752a13,13,0,0,1-5.083-10.027c-.363-2.9,1.452-6.282,1.573-9.181.121-2.3.121-3.624.968-5.316-3.268,1.329-3.994,5.92-6.051,8.336-1.573,1.57-3.026,1.57-4.6,3.262-1.452,1.57-1.573,3.624-2.3,5.557-1.815,4.349-4.962,8.336-8.714,10.39-3.873,2.3-3.873,5.8-6.414,9.3-1.937,2.779-6.052,3.624-8.835,5.92-2.9,2.416-6.051,4.953-8.835,7.249-1.815,1.45-3.026,3.866-4.6,5.8a40.173,40.173,0,0,1-4.6,3.624c-3.268,2.537-5.325,7.249-6.9,10.873-1.936,4.108-5.325,7.007-7.383,10.873-1.936,3.866-2.784,9.181-6.051,12.2-1.573,1.57-4.357,1.812-6.051,3.624-1.815,1.933-2.784,4.349-4.6,6.04-3.389,3.02-7.867,4.832-7.5,10.39-6.536-.6-6.9,4.591-9.2,9.423-2.3,4.349-5.809,7.249-8.956,10.873-2.542,2.9-7.988,7.249-8.714,10.873-.484,2.3,1.452,4.108-1.089,6.282-1.815,1.45-3.994,1.571-5.93,3.262-1.573,1.45-3.268,3.383-4.962,4.832-2.421,1.933-2.542,1.45-5.325,1.57-4.478.121-8.23,3.383-12.224,5.074C1012.3,1017.51,1009.636,1022.342,1005.279,1025.6Zm7.625,72.727c.605-4.349,1.452-8.94,1.089-13.41-.484-6.04,1.573-10.51,3.631-16.43,2.3-5.92,3.994-12.2,6.294-17.88,1.331-3.02,3.994-5.8,5.93-8.336,3.631-4.591,7.262-9.182,10.53-13.893,3.026-4.47,3.389-9.3,6.536-13.772,3.631-4.953,8.714-9.665,13.192-13.893,4.841-4.832,9.8-8.819,14.161-14.135,2.784-3.141,5.325-6.041,8.835-8.457,1.452-.966,6.9-5.557,7.867-5.074l7.383-4.108a40.632,40.632,0,0,0-4.115,13.651,74.592,74.592,0,0,1-3.026,12.443c-1.452,4.832-.121,7.007.484,11.477a30.483,30.483,0,0,1-.484,11.96c-1.089,4.832-.847,8.7-3.51,13.168-2.542,4.47-4.115,9.3-6.536,13.772-2.784,5.316-6.778,9.906-9.682,15.222-3.147,5.8-7.5,10.39-11.5,15.705-5.809,7.369-12.224,13.41-18.4,20.3a127.842,127.842,0,0,1-9.8,10.027c-2.421,2.054-8.956,5.92-9.44,9.182-1.452.121-4.962.967-6.294.6-3.026-1.087-.484-2.9-.484-5.316,0-1.57-1.089-3.262-1.815-4.47C1012.419,1103.526,1012.419,1102.2,1012.9,1098.331Zm384.388,98.7a44.789,44.789,0,0,1-4.478,10.873c-2.9,4.349-5.446,7.369-9.924,9.906-3.873,2.3-7.867,5.92-12.224,7.49-4.6,1.812-10.287,1.45-15.129,2.9-4.478,1.087-8.714,3.02-12.95,4.108-2.9.846-5.567.846-8.351,2.054-1.936.846-3.51,2.054-5.809,2.537-2.9.6-8.351.363-10.893-1.329-3.631-2.3-3.51-6.4-8.472-6.765-4.115-.121-8.835,4.591-12.224,6.765-7.746,4.832-18.154,3.5-26.99,6.524a30.422,30.422,0,0,1-14.645,1.933c-1.815-.121-4.357-.483-6.293.483-2.057,1.087-1.573,1.933-2.542,3.624-1.089,2.3-1.452,2.054-4.115,3.262-2.3.967-4.478,2.416-6.778,3.02-4.478,1.087-6.778.121-10.893-.483-5.567-.967-7.383,3.02-11.861,4.832-1.937.846-4.115.121-5.931,0-1.573-.121-4.115.121-6.051-.121-3.026-.483-3.147-1.087-5.809.363-1.573.967-3.147,2.416-5.083,2.779-2.3.483-3.994-.483-6.294-.483s-4.115.967-6.294,1.571a42.905,42.905,0,0,0-13.192,7.249c-2.421,1.933-2.784,3.02-6.052,3.02-2.057,0-3.51-.363-5.93.483a27.039,27.039,0,0,1-11.982,1.329c-4.357-.6-21.785,0-24.569.483-2.784.362-6.293-1.087-9.319-1.087-6.778,0-13.313-.483-20.091-.483-5.567,0-10.893,1.087-16.218,1.933-2.784.483-5.325,1.329-8.23,1.087-2.542-.121-4.357-.967-6.778-1.45-4.962-.967-10.53-.967-15.734-1.087-4.962-.362-9.319,1.812-14.16,1.571-3.026-.121-7.383-2.9-8.472-6.041-.605-1.933.484-5.074.121-7.369-.363-2.054-1.452-4.108-1.573-6.282-.847-8.457-3.268-16.913-1.089-25.491.968-3.987,3.631-8.94,5.93-12.323,2.421-3.5,5.325-3.987,9.319-4.591,8.956-1.45,17.791-3.141,26.142-6.886,11.256-4.953,21.785-10.752,32.436-16.672,7.383-4.108,15.25-7.49,22.753-11.356,7.383-3.987,14.161-9.423,21.543-13.168,12.95-6.4,25.537-14.135,36.43-23.679,1.573-1.45,2.3-3.02,3.631-4.47,1.936-1.933,5.567-2.9,7.988-4.108,8.714-4.953,18.276-9.3,27.474-13.41a184.525,184.525,0,0,0,17.791-8.457c4.6-2.779,7.867-6.886,11.861-10.269,4.962-3.987,10.771-6.4,14.281-11.839,2.421-3.624,3.994-7.49,6.778-10.994,6.9-8.457,12.466-18.242,20.333-26.095,1.573-1.57,3.873-2.779,5.446-4.349s2.3-3.5,3.389-5.436c3.026-4.832,6.051-9.665,10.408-13.289a24.488,24.488,0,0,0,7.262-9.423c2.421-4.953,6.536-5.92,10.408-9.3,3.389-2.9,6.536-5.074,10.045-7.853,3.631-2.9,6.536-7.249,10.772-9.423,4.115-2.3,8.351-3.866,12.224-6.765,2.9-2.3,7.5-7.007,11.861-6.282-2.3,3.02-4.115,6.886-6.778,9.906-1.089,1.45-4.357,3.02-4.841,4.591-.484,1.329,1.452,4.47,2.3,5.557a25.717,25.717,0,0,0,3.631,3.624,28.953,28.953,0,0,1,2.542,1.571c.605.846.363,1.812,1.089,2.537,2.542,3.02,8.956,3.383,8.23,8.457-.363,1.812-2.784,3.383-3.873,5.074-1.089,1.812-1.815,3.987-3.51,5.436-1.936,1.45-3.51,1.571-5.083,3.5-.605.846-.847,1.933-1.573,2.779-.605.6-1.573.966-2.057,1.571-2.9,3.141-1.815,7.007-4.962,10.027-3.026,3.02-5.325,5.92-8.23,8.94-3.51,3.624-7.5,6.282-10.409,10.269-3.389,4.591-7.383,8.215-10.771,12.443,8.835-2.3,16.339-9.786,23.237-15.1,3.026-2.416,6.778-4.108,10.046-6.282,2.784-1.57,7.262-2.779,9.2-5.074,1.331,5.436-2.3,9.906-4.962,14.135-1.815,2.779-1.573,4.47-2.542,7.369-.847,2.416-3.026,3.866-4.6,6.04-2.542,3.866-4.6,6.886-5.446,11.356-.363,1.571,0,4.591-.847,5.92-.968,1.45-3.389,2.416-4.841,3.262-4.962,2.537-5.809,4.832-7.383,9.786-.605,2.054-1.816,3.02-2.9,4.591-1.331,1.812-1.452,2.779-2.3,4.591-1.089,2.537-3.389,3.866-4.6,6.282a23.592,23.592,0,0,0-2.057,5.8c-1.573,6.282-3.51,7.853-8.351,12.2-4.962,4.47-8.472,9.906-11.982,15.705a37.473,37.473,0,0,0-5.083,11.718c-.484,2.416-.484,4.591-1.452,6.886a32.9,32.9,0,0,0,14.887-8.94c3.631-3.866,6.415-7.369,10.529-10.752,3.873-3.262,8.714-5.316,12.466-8.457,7.02-5.8,7.988-15.222,8.835-23.558.484-5.436,3.389-8.336,6.778-12.443s3.389-7.973,4.6-12.927a90.053,90.053,0,0,1,6.415-15.584c2.3-4.47,6.051-11.356,10.287-14.135a7.529,7.529,0,0,0,3.873,2.537c2.421.846,3.026-.362,4.841,1.933,2.057,2.779,2.9,6.886,4.115,10.027,2.542,6.4,8.956,13.651,9.682,20.3.363,3.141-1.089,6.886-2.542,9.786-1.452,3.02-2.784,6.282-4.115,8.94-1.936,3.5-4.6,4.591-5.809,8.819-.847,2.9-2.542,7.49-.968,10.39-1.331,1.45-3.268,2.054-4.6,3.262-2.421,1.933-5.567,3.5-7.867,5.557-2.9,2.779-4.357,7.369-6.778,10.51-4.115,5.557-7.867,11.839-11.861,17.638a103.537,103.537,0,0,0-7.02,11.718c-1.331,2.416-3.631,4.832-2.9,7.732,4.357-2.416,6.536-8.215,9.8-11.96,3.873-4.47,6.778-10.994,11.014-14.86a35.5,35.5,0,0,1,6.051-4.107c3.268-1.571,3.994-.6,4.6-4.108,1.089-4.953,2.057-7.369,5.809-10.994,1.452-1.571,3.51-2.9,4.115-4.953,1.089,4.47,5.083,8.215,6.536,12.806.847,2.537,2.421,4.349,3.268,6.765s.363,4.591-.121,7.249c-.484,2.3.121,5.92-.847,7.973-.847,1.812-2.9,3.262-4.115,4.591-3.026,3.262-5.93,6.282-8.956,9.3-2.542,2.416-6.9,5.8-7.746,9.3,3.389-.121,11.861-3.262,14.4-5.074.968-.846,1.089-2.3,2.3-3.262,1.452-1.329,3.994-2.3,5.809-3.02,2.9-1.45,6.778-2.537,8.956-5.074C1397.05,1190.146,1398.26,1193.529,1397.292,1197.032ZM1548.7,996.368a9.925,9.925,0,0,1-5.325-3.02c-1.573-1.45-1.452-2.3-2.542-3.866-5.083-7.249-15.976-8.819-23.843-6.282-2.3.846-3.268,2.779-5.325,3.624-1.936.966-3.389.362-5.083,0-4.357-.846-8.472,1.087-12.95,1.087a16.316,16.316,0,0,0-6.778,1.087c-1.815.6-3.994,2.779-5.809,3.02-2.421.362-5.083-1.812-7.383-2.537a36.76,36.76,0,0,0-8.714-1.571c-5.325-.846-10.408-1.571-15.734-2.054-4.115-.362-7.5-1.812-11.5-2.054-4.478-.362-8.351.846-12.345,2.3-1.331.483-3.994,1.812-5.325,1.45-1.452-.121-2.9-1.933-4.6-2.3-4.357-.846-7.262-2.3-11.5-3.624-4.115-1.45-7.988-.483-12.224,0-4.6.6-7.988-.846-11.982-1.933-3.631-1.087-7.988-.846-11.861-1.812,2.421-1.45,5.325,1.087,8.351-.362a31.282,31.282,0,0,1,4.841-1.812,9.641,9.641,0,0,0,3.026-1.329c2.784-1.812,4.962-4.349,7.746-5.92,3.389-1.933,5.567-2.9,8.351-5.557,1.815-1.812,4.841-4.108,5.325-6.765.605-3.02-2.542-5.8-3.389-8.94-.605-2.779-.121-6.524-3.026-8.215-2.542-1.45-6.778-.121-9.319.362.605-3.383,4.6-5.557,7.262-7.732,3.389-2.779,7.02-6.282,10.893-8.215,1.089-.6,1.089-1.329,2.542-1.087,1.815.121,2.057,2.054,3.268,2.537,2.784.966,4.357-1.45,6.778-2.054,2.3-.846,4.6-.362,6.778.362,3.026.846,3.873,1.812,6.778,1.087,5.93-1.57,12.345-6.524,18.759-5.316.363,8.94,17.428,4.108,22.511,3.02,3.994-.966,6.778-3.5,9.8-6.282,3.389-3.02,7.383-5.557,11.014-8.336,2.421-1.812,8.23-6.524,11.5-5.316,2.784,1.087,4.478,7.369,4.6,9.906.363,4.953-.968,8.819-2.3,13.651-.968,3.624-4.962,9.3-2.9,12.927,3.631-2.054,5.93-9.786,10.287-10.39,4.6-.483,1.936,8.457,3.268,11.356,3.026-.121,4.962-2.779,8.351-1.57,1.815.6,4.357,2.9,4.841,4.832.484,2.3-7.746,16.309-1.089,16.672l.484,4.591c2.784,4.591,8.835,7.007,11.861,11.477,1.573,2.416.847,5.074,1.816,7.732,1.331,3.02,3.873,3.383,5.93,5.316C1556.445,992.382,1553.178,997.7,1548.7,996.368Zm100.575-199.335c-.484,1.45-1.089,4.349-3.026,4.349-1.331,0-3.026-2.537-5.083-2.779-4.841-.121-5.81,3.383-5.325,7.249.847,4.832.121,7.853-2.3,11.839-1.936,3.262-4.841,5.316-4.115,9.181.121.6,1.089.966,1.331,1.933.121.966-.847,1.45-.968,2.3a13.8,13.8,0,0,0-.121,6.282c.847,4.107,1.331,8.819-.363,12.927a10.457,10.457,0,0,1-2.784,4.591c-1.331,1.087-4.478,1.812-5.567,3.141-1.331,1.57-.847,4.47-1.089,6.282a21.475,21.475,0,0,1-2.3,5.8c-1.452,2.779-3.147,7.49-6.051,9.423-1.936,1.087-2.784.483-4.357,1.571-1.815,1.329-3.389,4.349-4.115,6.282-.847,1.812-.847,3.383-2.3,4.832-1.573,1.57-3.268,1.933-4.6,3.987-2.542,3.987-2.542,6.886-3.873,10.873-1.452,4.47-4.841,6.282-7.988,9.3-3.51,3.624-3.268,6.765-3.026,10.994.121,10.51-6.415,21.262-7.262,32.014-1.936-3.383-4.115-6.04-5.567-9.3-1.815-3.624-5.446-4.591-8.472-7.249-5.809-4.953-11.256-10.873-17.186-15.705-3.026-2.416-6.9-4.591-8.23-8.336-.605-1.933-.605-3.141-1.573-5.074-.847-1.45-1.573-3.02-2.542-4.349-2.784-3.383-7.02-3.866-9.44-7.732-3.147-5.074-2.542-9.182-1.089-15.1a12.533,12.533,0,0,0,.605-3.5c-.484,0-.968-.121-1.452-.121-.605-3.624-4.115-4.591-6.9-6.04a47.351,47.351,0,0,1-10.287-6.4c-3.026-2.416-7.867-2.054-7.383-6.765.484-3.624,2.057-7.249,6.293-7.369.363-4.832-1.331-9.906,1.452-14.135,2.542-3.866,11.377-3.987,7.988-10.269,2.9-2.3,4.841-7.007,8.351-7.007,4.478,0,7.867.6,12.345-.966,2.057-.6,3.51-1.812,5.809-2.3s4.115-.483,6.293-1.329c3.873-1.57,5.93-3.987,10.045-4.591.968-.121,1.452-.966,2.542-.6,1.452.362.847,1.087,1.573,1.57,1.452.966,2.542,2.537,4.6,1.933,2.057-.483,3.268-2.537,5.083-3.383,1.936-.846,4.115-.6,6.051-1.329,3.51-.966,7.5-2.779,11.014-3.987,1.937-.846,4.841-3.02,6.778-3.141,3.026,0,3.268,2.3,6.052.483,1.936-1.329,3.026-3.624,5.325-4.591,2.421-1.087,4.478-.966,6.9-2.416,4.115-2.537,8.351-5.436,12.466-7.973,3.994-2.537,7.383-6.524,11.377-8.819,3.994-2.416,8.714-2.9,11.5-7.249l7.383-4.591c0,4.591-1.089,9.3-1.089,12.443C1650.364,788.456,1650.606,792.805,1649.275,797.034Z" transform="translate(-1.6 9729.6)" fill="#5da4cf"/>
      <path id="Path_226" data-name="Path 226" d="M1515.957,11056.922l66.231-18.4,23-24.837,19.317-9.2,20.237-26.677,17.478-10.118,15.638-24.837,11.039-27.6h9.2l9.2-17.478,59.792-9.2H1809.4l22.077-8.279h63.471v8.279l-10.119,26.676-9.2,20.237-6.439,11.959-11.958,30.355-25.756,11.958-12.878,14.719h-9.2l-7.359,9.2-7.359,17.478-116.824,100.267-15.638,29.437-9.2,5.52-28.516,12.878-74.51-12.878-38.635,20.237-28.516,15.638-5.519-23,12.878-12.878-7.359-25.757,13.8-17.478Z" transform="translate(-1430 -401)" fill="#5da4cf"/>
      <path id="Path_227" data-name="Path 227" d="M1835.616,11093.819l5.979-99.255h-40.659l-23.917,58.6-9.567,68.163,16.742,60.988,43.05,13.154,50.225-13.154,14.35,13.154h19.134l5.979-13.154h26.308l63.38,13.154,16.742-63.38v-53.812l-9.567,9.566v-34.68h-16.742l-29.9-50.225v-117.192h-84.9l-23.917,82.513-8.371,14.35Z" transform="translate(-1429.289 -401)" fill="#5da4cf"/>
      <path id="Path_228" data-name="Path 228" d="M1975.9,10895.959v19.317l32.2,31.276,31.276,25.756,29.436,20.237,19.317,4.6,12.878,29.437,17.478-3.68,15.638,23.917,24.837-16.558,8.279-23,37.715-14.719-8.782-5.783-28.933-19.053,17.478-61.632v-16.559l20.237-4.6-13.8,21.157,8.279,17.478v23l-8.279,68.07,23.917-17.478,36.8,43.234,49.673,27.6,12.878-41.395-12.878-34.036-45.074-31.275-16.558-21.157h16.558l13.8,21.157,15.638-21.157,6.439-20.237-22.077-4.6-18.4-49.673,34.035-5.52,41.395-21.157,26.677-51.514,4.6-28.516,7.359-21.157-7.359-10.119-13.8,10.119-23,21.157-20.237,17.478-31.276,15.638-18.4,10.119-11.958,15.638-8.279,9.2-16.558,11.959-10.119,9.2-13.8,11.959-11.039,13.8v5.52l-52.433,16.558H2096.4l-35.314,8.088-44.716-1.648-28.516-6.439Z" transform="translate(-1428.75 -401)" fill="#5da4cf"/>
      <path id="Path_229" data-name="Path 229" d="M2296.139,10883.212c-1.256,1.256,0,35.171,0,35.171l-3.35,28.472,7.537,12.561,10.886-17.167s4.606-13.4,5.862-15.491,17.167-23.447,17.167-23.447l30.146-30.983,24.284-50.663,4.606-29.309-9.211-6.7-16.329,3.769-6.281,19.26-11.723,12.979s-10.468,12.98-11.3,14.236-10.886,7.537-12.98,10.049S2296.139,10883.212,2296.139,10883.212Z" transform="translate(-1428.34 -401)" fill="#5da4cf"/>
      <path id="Path_230" data-name="Path 230" d="M2412.915,10778.864l-32.55,115.339-44.579,87.035-10.614,60.854,36.8-26.182,10.614-38.21,17.69-30.427,22.643-44.579,23.351-123.83-23.351-8.491Z" transform="translate(-1428.267 -401)" fill="#5da4cf"/>
      <path id="Path_231" data-name="Path 231" d="M2380.719,10978.41l-23,51.655-40.333,54.485s-2.123,50.238,0,49.531,77.836-50.24,77.836-52.362,50.947-121.707,50.947-121.707l19.813,32.55,27.6-28.3-33.257-47.409,33.257-39.626-11.322,39.626,40.333,26.181,4.246,16.982-28.3,25.474v36.795l-32.55,25.474v15.567h-34.672l-50.594,70.76,10.261,25.474,44.8,96.191,82.19-56.063,27.215-83.279,38.97-111.105,19.105,37.5,66.514-3.538,7.076-16.982-58.731-48.824v-44.578l11.322-36.088-30.427-4.246,9.2-36.795h-17.69l-34.672,41.041-16.275-41.041-12.737-31.842,4.953-20.521h-33.257l-38.21-11.321-14.152,11.321-9.2,20.521-5.661,31.842-4.953,41.041-8.491,16.274-26.889,43.164-4.246,12.029Z" transform="translate(-1428.01 -401)" fill="#5da4cf"/>
      <path id="Path_232" data-name="Path 232" d="M2453.156,11325.248l466.379-369.994,21.982-3.39,17.392-1.61,19-7.73h14.171l24.478-7.085,38.649-21.579,22.545-14.494,2.255,18.037v18.036s-13.205,6.118-13.849,7.085-4.831,26.732-4.831,26.732l-6.119,33.225-22.435,25.474-16.214,31.843-11.382,44.578-13.1,26.549-175.869,25.112,23.917,157.852-7.175,57.4-218.84,33.483h-19.134l-155.46,4.784-32.288-25.113Z" transform="translate(-1426.5 -401)" fill="#5da4cf"/>
    </g>
  </g>
</svg>
