<svg xmlns="http://www.w3.org/2000/svg" width="375.012" height="91.985" viewBox="0 0 375.012 91.985">
  <g id="Group_145" data-name="Group 145" transform="translate(1 -2137.784)">
    <path id="Path_3" data-name="Path 3" d="M623,1652.662c208.373,57.08,165.258,15.353,165.258,15.353s-9.273-11.565-18.783-7.74-7.068-8.029-7.068-8.029-.219-17.5,64.217,17.367,171.388-17.367,171.388-17.367v74.485l-375.012-.3Z" transform="translate(-623.997 503.039)" fill="#f2f2f2"/>
    <g id="spacecraft-rocket-svgrepo-com" transform="matrix(0.259, -0.966, 0.966, 0.259, 112.983, 2162.755)">
      <path id="Path_178" data-name="Path 178" d="M29.987,15.252l-1.931-2.418V6.222a.666.666,0,0,0-.223-.5L21.594.169A.668.668,0,0,0,21.15,0H8.983a.668.668,0,0,0-.444.169L2.3,5.724a.666.666,0,0,0-.223.5v6.612L.146,15.252a.667.667,0,0,0,.522,1.082h28.8a.667.667,0,0,0,.522-1.082Z" transform="translate(0 15.978)" fill="#0081d1"/>
      <path id="Path_179" data-name="Path 179" d="M1.509,15.918,3.44,13.5V6.889a.666.666,0,0,1,.223-.5L9.9.836a.668.668,0,0,1,.444-.169H22.153l-.559-.5A.668.668,0,0,0,21.15,0H8.983a.668.668,0,0,0-.444.169L2.3,5.724a.666.666,0,0,0-.223.5v6.612L.146,15.252a.667.667,0,0,0,.522,1.082h.7A.665.665,0,0,1,1.509,15.918Z" transform="translate(0 15.978)" fill="#231f20" opacity="0.1"/>
      <path id="Path_180" data-name="Path 180" d="M6.52.038a.5.5,0,0,0-.383,0A9.921,9.921,0,0,0,0,9.23V34.752a1.267,1.267,0,0,0,1.265,1.265H11.391a1.267,1.267,0,0,0,1.265-1.265V9.23A9.922,9.922,0,0,0,6.52.038Z" transform="translate(8.714 0)" fill="#f9faff"/>
      <path id="Path_181" data-name="Path 181" d="M2.63,0A2.633,2.633,0,0,0,0,2.63a.5.5,0,0,0,.5.5H4.76a.5.5,0,0,0,.5-.5A2.633,2.633,0,0,0,2.63,0Z" transform="translate(12.412 5.833)" fill="#005184"/>
      <path id="Path_182" data-name="Path 182" d="M0,0V2.276A1.265,1.265,0,0,0,1.265,3.542H11.391a1.265,1.265,0,0,0,1.265-1.265V0H0Z" transform="translate(8.714 32.476)" fill="#b4e2ff"/>
      <path id="Path_183" data-name="Path 183" d="M.625,13.234A.625.625,0,0,1,0,12.609V.625a.625.625,0,0,1,1.25,0V12.609A.625.625,0,0,1,.625,13.234Z" transform="translate(14.417 25.695)" fill="#0081d1"/>
      <g id="Group_143" data-name="Group 143" transform="translate(8.714 0)">
        <path id="Path_184" data-name="Path 184" d="M1.361,34.752V9.23A9.918,9.918,0,0,1,7.009.258C6.848.181,6.686.107,6.52.038a.5.5,0,0,0-.383,0A9.921,9.921,0,0,0,0,9.23V34.752a1.267,1.267,0,0,0,1.265,1.265H2.627A1.267,1.267,0,0,1,1.361,34.752Z" transform="translate(0 0)" fill="#231f20" opacity="0.1"/>
        <path id="Path_185" data-name="Path 185" d="M1.361,2.63A2.634,2.634,0,0,1,3.311.09,2.629,2.629,0,0,0,0,2.63a.5.5,0,0,0,.5.5H1.862A.5.5,0,0,1,1.361,2.63Z" transform="translate(3.698 5.833)" fill="#231f20" opacity="0.1"/>
      </g>
    </g>
  </g>
</svg>
