<svg xmlns="http://www.w3.org/2000/svg" xmlns:xlink="http://www.w3.org/1999/xlink" width="238" height="247" viewBox="0 0 238 247">
  <defs>
    <linearGradient id="linear-gradient" x1="0.244" y1="0.927" x2="0.831" y2="0.141" gradientUnits="objectBoundingBox">
      <stop offset="0" stop-color="#2694d8"/>
      <stop offset="1" stop-color="#bfe7ff"/>
    </linearGradient>
  </defs>
  <g id="Group_169" data-name="Group 169" transform="translate(-1050.137 -5800.313)">
    <g id="Group_159" data-name="Group 159" transform="translate(1050.137 5800.313)">
      <ellipse id="Ellipse_26" data-name="Ellipse 26" cx="119" cy="118" rx="119" ry="118" transform="translate(0 11)" fill="url(#linear-gradient)"/>
      <ellipse id="Ellipse_27" data-name="Ellipse 27" cx="24.5" cy="24" rx="24.5" ry="24" transform="translate(18 184)" fill="#ebebeb" opacity="0.48"/>
      <ellipse id="Ellipse_28" data-name="Ellipse 28" cx="24.5" cy="24" rx="24.5" ry="24" transform="translate(141.109)" fill="#57bfff" opacity="0.48"/>
    </g>
    <g id="undraw_Through_the_desert_re_1q2x" transform="translate(1058.03 5840.095)">
      <path id="Path_198" data-name="Path 198" d="M451.228,225.694c-2.374-3.926-5.186-8.117-9.591-9.4-5.1-1.484-10.341,1.464-14.786,4.374a430.854,430.854,0,0,0-38.343,28.251l.013.152,28.612-1.973c6.891-.475,14.018-1.016,20.108-4.276,2.311-1.237,4.563-2.889,7.182-3,3.253-.143,6.09,2.129,8.319,4.5,13.186,14.042,17,35.514,31.8,47.851a469.49,469.49,0,0,0-33.311-66.479Z" transform="translate(-334.993 -206.735)" fill="#f2f2f2"/>
      <path id="Path_199" data-name="Path 199" d="M196.622,220.809c-.155.112-.31.224-.465.333-1.142.575-2.264,1.188-3.381,1.806q-3.144,1.74-6.207,3.632-6.093,3.766-11.805,8.107-2.961,2.251-5.8,4.65c-.137-.15-.27-.305-.4-.463-.031-.038-.064-.076-.092-.117a16.79,16.79,0,1,1,27.792-18.63c.018.031.036.064.051.094Q196.477,220.511,196.622,220.809Z" transform="translate(-161.169 -203.561)" fill="#0b5af6"/>
      <path id="Path_200" data-name="Path 200" d="M281.712,583.4a155.178,155.178,0,0,1,20.614,1.944,160.154,160.154,0,0,1,57.907,21.487,155.266,155.266,0,0,1,16.9,11.963q.986.8,1.959,1.622c.417.35,1.022-.249.6-.6a156.891,156.891,0,0,0-16.81-12.329,159.573,159.573,0,0,0-18.264-10,162.112,162.112,0,0,0-19.432-7.568,159.868,159.868,0,0,0-20.215-4.986,156.951,156.951,0,0,0-20.642-2.295q-1.312-.058-2.624-.093a.426.426,0,0,0,0,.851Z" transform="translate(-244.627 -469.362)" fill="#e4e4e4"/>
      <path id="Path_201" data-name="Path 201" d="M275.962,488.572c12.364.865,24.732,1.744,37.047,3.166a278.792,278.792,0,0,1,36.647,6.455,168.383,168.383,0,0,1,30.984,10.977,130.42,130.42,0,0,1,26.11,16.266A101.1,101.1,0,0,1,427.3,547.7q1.065,1.6,2.062,3.233c.285.467,1.021.04.735-.43a99.5,99.5,0,0,0-19.815-23.216A127.088,127.088,0,0,0,384.649,510.2a162.234,162.234,0,0,0-30-11.554,257.341,257.341,0,0,0-36.582-7.141c-12.441-1.6-24.951-2.569-37.46-3.456l-4.649-.327c-.547-.038-.544.813,0,.851Z" transform="translate(-240.51 -401.437)" fill="#e4e4e4"/>
      <path id="Path_202" data-name="Path 202" d="M453.193,323.079q-2.187-2.762-4.344-5.549-17.568-22.721-33.024-46.977-10.5-16.474-19.956-33.58-4.5-8.133-8.758-16.393-3.3-6.4-6.457-12.886c-.6-1.234-1.186-2.474-1.768-3.717-1.37-2.922-2.715-5.859-4.159-8.741-1.646-3.285-3.649-6.73-6.67-8.937a9.1,9.1,0,0,0-4.741-1.824c-2.46-.159-4.729.857-6.863,1.966A220.926,220.926,0,0,0,313.01,216.4a226.166,226.166,0,0,0-35.294,39.178c-.312.445-1.05.02-.735-.428q1.86-2.63,3.793-5.2a227.413,227.413,0,0,1,58.059-54.155q5.648-3.66,11.507-6.976c1.969-1.115,3.947-2.216,5.958-3.249a14.516,14.516,0,0,1,6.318-1.958c7.666-.119,11.635,8.563,14.362,14.4q1.285,2.758,2.6,5.5,4.975,10.405,10.333,20.62,3.307,6.307,6.758,12.54,10.741,19.41,22.833,38.035,16.019,24.67,34.29,47.775C454.129,322.9,453.531,323.51,453.193,323.079Z" transform="translate(-241.478 -183.604)" fill="#e4e4e4"/>
      <path id="Path_203" data-name="Path 203" d="M227.666,248.6c-.445-.5-.888-.993-1.336-1.489-3.535-3.91-7.328-7.774-12.183-10.015a17.674,17.674,0,0,0-7.4-1.716,21.132,21.132,0,0,0-7.689,1.677c-1.158.462-2.29.987-3.4,1.546-1.274.641-2.525,1.325-3.771,2.014q-3.507,1.941-6.923,4.051-6.8,4.2-13.167,9.042-3.3,2.511-6.469,5.186-2.945,2.485-5.771,5.1c-.4.372-1-.23-.6-.6.5-.462,1-.922,1.5-1.376q2.128-1.924,4.324-3.773,4-3.379,8.216-6.5,6.55-4.851,13.55-9.045,3.5-2.094,7.093-4.012c.724-.386,1.456-.763,2.2-1.121a35.007,35.007,0,0,1,5.22-2.125,18.571,18.571,0,0,1,7.884-.775,20.528,20.528,0,0,1,7.274,2.517c4.766,2.664,8.463,6.784,12.061,10.8C228.631,248.406,228.032,249.011,227.666,248.6Z" transform="translate(-156.892 -220.096)" fill="#e4e4e4"/>
      <path id="Path_204" data-name="Path 204" d="M744.415,403.178,755.836,399l5.671-2.074a58,58,0,0,1,5.6-1.928,8.832,8.832,0,0,1,5.067.065,11.677,11.677,0,0,1,3.952,2.45,32.073,32.073,0,0,1,3.242,3.462c1.235,1.484,2.451,2.983,3.673,4.477q7.564,9.251,15.03,18.582t14.83,18.741q7.383,9.433,14.665,18.945.892,1.165,1.783,2.332c.328.43,1.068.006.735-.43q-7.336-9.608-14.773-19.137-7.456-9.552-15.015-19.023T785.074,406.6q-1.909-2.339-3.824-4.673c-1.077-1.312-2.142-2.639-3.323-3.861-2.168-2.242-4.877-4.224-8.119-4.278a15.669,15.669,0,0,0-5.522,1.214c-1.909.691-3.814,1.394-5.721,2.092l-11.5,4.207-2.875,1.052c-.51.187-.29,1.009.226.821Z" transform="translate(-607.98 -334.158)" fill="#e4e4e4"/>
      <path id="Path_205" data-name="Path 205" d="M190.561,205.552l-.679.513a20.572,20.572,0,0,0-36.865,14.671,20.36,20.36,0,0,0,5.767,12.133l-.607.6a21.2,21.2,0,0,1-6.006-12.635,21.423,21.423,0,0,1,38.39-15.279Z" transform="translate(-152.038 -193.223)" fill="#e4e4e4"/>
      <path id="Path_206" data-name="Path 206" d="M509.235,347.537a1.949,1.949,0,0,1-.464-2.953l-2.533-25.421,4.23.281,1.172,25.032a1.96,1.96,0,0,1-2.4,3.061Z" transform="translate(-418.702 -280.703)" fill="#9e616a"/>
      <path id="Path_207" data-name="Path 207" d="M509.37,302.72l-1.109,8.429.154,5.166-4.652.426-.932-4.3-.514-11.375a3.394,3.394,0,0,1,3-3.525h0a3.394,3.394,0,0,1,3.757,2.927Z" transform="translate(-415.803 -265.201)" fill="#2f2e41"/>
      <path id="Path_208" data-name="Path 208" d="M301.839,366.16h-2.822l-1.343-10.886h4.165Z" transform="translate(-224.029 -254.478)" fill="#9e616a"/>
      <path id="Path_209" data-name="Path 209" d="M443.952,577.655h-9.1v-.115A3.542,3.542,0,0,1,438.394,574h5.558Z" transform="translate(-365.09 -463.237)" fill="#2f2e41"/>
      <path id="Path_210" data-name="Path 210" d="M383.974,366.16h-2.822l-1.343-10.886h4.165Z" transform="translate(-285.844 -254.478)" fill="#9e616a"/>
      <path id="Path_211" data-name="Path 211" d="M526.087,577.655h-9.1v-.115A3.542,3.542,0,0,1,520.529,574h5.558Z" transform="translate(-426.965 -463.237)" fill="#2f2e41"/>
      <circle id="Ellipse_29" data-name="Ellipse 29" cx="6.119" cy="6.119" r="6.119" transform="translate(82.287 16.099)" fill="#9e616a"/>
      <path id="Path_212" data-name="Path 212" d="M461.952,292.236l4.246.485h0a11.3,11.3,0,0,1,1.445,10.2l-3.2,9.269s4.448,8.916,4.448,17.195,8.47,37.828,8.47,37.828l-11.923,1.244-5.2-31.479-7.169,31.352L444.879,367l4.508-41.106,2.979-13.53.127-6.6s-1.267-4.951,1.9-8.121l3.87-5.393Z" transform="translate(-373.787 -261.415)" fill="#2f2e41"/>
      <path id="Path_213" data-name="Path 213" d="M482.7,242.156H491.7v-3.919c-1.973-.784-3.9-1.451-5.072,0a3.919,3.919,0,0,0-3.919,3.919Z" transform="translate(-401.133 -222.124)" fill="#2f2e41"/>
      <path id="Path_214" data-name="Path 214" d="M498.781,237.96c5.375,0,6.88,6.737,6.88,10.538,0,2.12-.959,2.878-2.465,3.134l-.532-2.837-1.246,2.96c-.423,0-.868-.006-1.329-.015l-.422-.87-.942.854c-3.773.006-6.823.556-6.823-3.226C491.9,244.7,493.221,237.96,498.781,237.96Z" transform="translate(-408.311 -222.538)" fill="#2f2e41"/>
      <path id="Path_215" data-name="Path 215" d="M330.237,149.545l-.227-9.87-.6-4.381-1.49,4.34Z" transform="translate(-246.703 -96.909)" opacity="0.2"/>
      <path id="Path_216" data-name="Path 216" d="M510.931,314.348h-6.757v-19.86h6.757a4.881,4.881,0,0,1,4.876,4.876v10.109A4.881,4.881,0,0,1,510.931,314.348Z" transform="translate(-417.448 -263.029)" fill="#0b5af6"/>
      <path id="Path_217" data-name="Path 217" d="M522.525,306.216a.852.852,0,0,1-.851-.851v-7.377h1.7v7.377A.852.852,0,0,1,522.525,306.216Z" transform="translate(-430.094 -265.536)" fill="#3f3d56"/>
      <path id="Path_218" data-name="Path 218" d="M516.693,346.095h-4.944a1.076,1.076,0,0,1-1.075-1.075v-2.958a1.076,1.076,0,0,1,1.075-1.075h4.944a1.076,1.076,0,0,1,1.075,1.075v2.958A1.076,1.076,0,0,1,516.693,346.095Z" transform="translate(-422.101 -296.336)" fill="#3f3d56"/>
      <path id="Path_219" data-name="Path 219" d="M477.187,302.449a9.4,9.4,0,0,1-2.014-6.017c0-4.38,2.609-7.944,5.816-7.944a5.348,5.348,0,0,1,4.45,2.823l-.483.3a4.8,4.8,0,0,0-3.967-2.554c-2.894,0-5.249,3.309-5.249,7.377a8.824,8.824,0,0,0,1.879,5.65Z" transform="translate(-395.523 -258.731)" fill="#0b5af6"/>
      <path id="Path_220" data-name="Path 220" d="M487.971,343.97a2.136,2.136,0,0,1-.332-3.258l-1.26-27.963,4.611.559-.206,27.456a2.147,2.147,0,0,1-2.812,3.206Z" transform="translate(-403.7 -276.109)" fill="#9e616a"/>
      <path id="Path_221" data-name="Path 221" d="M489.972,295.441l-1.714,9.156-.139,5.661-5.115.189-.765-4.756.114-12.475a3.719,3.719,0,0,1,3.491-3.678h0a3.719,3.719,0,0,1,3.937,3.425Z" transform="translate(-400.72 -259.478)" fill="#2f2e41"/>
      <ellipse id="Ellipse_30" data-name="Ellipse 30" cx="1.986" cy="5.674" rx="1.986" ry="5.674" transform="translate(87.846 120.587) rotate(-69.728)" fill="#e6e6e6"/>
      <ellipse id="Ellipse_31" data-name="Ellipse 31" cx="1.986" cy="5.674" rx="1.986" ry="5.674" transform="translate(104.202 119.573) rotate(-60)" fill="#e6e6e6"/>
      <ellipse id="Ellipse_32" data-name="Ellipse 32" cx="1.986" cy="5.674" rx="1.986" ry="5.674" transform="matrix(0.46, -0.888, 0.888, 0.46, 111.791, 132.326)" fill="#e6e6e6"/>
      <ellipse id="Ellipse_33" data-name="Ellipse 33" cx="1.986" cy="5.674" rx="1.986" ry="5.674" transform="matrix(0.46, -0.888, 0.888, 0.46, 127.55, 136.581)" fill="#e6e6e6"/>
      <path id="Path_222" data-name="Path 222" d="M301.661,256.062a18.439,18.439,0,0,0-18.571,1.328,264.87,264.87,0,0,1,30.135,7.033C309.115,262.015,305.9,258.24,301.661,256.062Z" transform="translate(-245.909 -234.142)" fill="#f2f2f2"/>
      <path id="Path_223" data-name="Path 223" d="M280.069,265.512l-1.117.908c.378-.318.771-.616,1.174-.9Z" transform="translate(-242.944 -242.273)" fill="#f2f2f2"/>
      <path id="Path_224" data-name="Path 224" d="M841.854,418.547c-1.124-1.369-2.34-2.8-4.022-3.357l-1.57.062A178.088,178.088,0,0,0,883.7,469.479Z" transform="translate(-674.138 -349.485)" fill="#f2f2f2"/>
    </g>
  </g>
</svg>
