<svg xmlns="http://www.w3.org/2000/svg" width="15.995" height="17.518" viewBox="0 0 15.995 17.518">
  <g id="swipe" transform="translate(-21.323 0.001)">
    <g id="Group_149" data-name="Group 149" transform="translate(31.225 1.522)">
      <g id="Group_148" data-name="Group 148" transform="translate(0)">
        <path id="Path_193" data-name="Path 193" d="M303.612,42.651h-4.57a.381.381,0,0,0,0,.762h4.57a.381.381,0,1,0,0-.762Z" transform="translate(-298.661 -42.651)" fill="#707070"/>
      </g>
    </g>
    <g id="Group_151" data-name="Group 151" transform="translate(34.271 -0.001)">
      <g id="Group_150" data-name="Group 150" transform="translate(0)">
        <path id="Path_194" data-name="Path 194" d="M386.163,1.635,384.64.111A.381.381,0,1,0,384.1.65L385.355,1.9,384.1,3.158a.381.381,0,0,0,.539.539l1.523-1.523A.381.381,0,0,0,386.163,1.635Z" transform="translate(-383.989)" fill="#707070"/>
      </g>
    </g>
    <g id="Group_153" data-name="Group 153" transform="translate(21.323 1.522)">
      <g id="Group_152" data-name="Group 152" transform="translate(0)">
        <path id="Path_195" data-name="Path 195" d="M26.279,42.651h-4.57a.381.381,0,1,0,0,.762h4.57a.381.381,0,1,0,0-.762Z" transform="translate(-21.328 -42.651)" fill="#707070"/>
      </g>
    </g>
    <g id="Group_155" data-name="Group 155" transform="translate(21.323 -0.001)">
      <g id="Group_154" data-name="Group 154" transform="translate(0 0)">
        <path id="Path_196" data-name="Path 196" d="M22.242,1.9,23.5.649A.381.381,0,1,0,22.958.11L21.434,1.634a.381.381,0,0,0,0,.539L22.958,3.7a.383.383,0,0,0,.27.111.377.377,0,0,0,.269-.112.381.381,0,0,0,0-.539Z" transform="translate(-21.323 0.001)" fill="#707070"/>
      </g>
    </g>
    <g id="Group_157" data-name="Group 157" transform="translate(23.162 2.283)">
      <g id="Group_156" data-name="Group 156" transform="translate(0)">
        <path id="Path_197" data-name="Path 197" d="M85.465,69.316a1.518,1.518,0,0,0-.847.257,1.523,1.523,0,0,0-2.285-.762,1.527,1.527,0,0,0-1.438-1.019,1.511,1.511,0,0,0-.762.2v-2.49a1.523,1.523,0,0,0-3.047,0v6.474l-1.324-.992a2,2,0,0,0-2.6.184,1.143,1.143,0,0,0,0,1.615l5.424,5.425a3.407,3.407,0,0,0,2.424,1H82.8a4.194,4.194,0,0,0,4.189-4.189V70.839A1.525,1.525,0,0,0,85.465,69.316Zm.762,5.712A3.432,3.432,0,0,1,82.8,78.455H81.014a2.649,2.649,0,0,1-1.886-.781L73.7,72.25a.381.381,0,0,1,0-.539,1.233,1.233,0,0,1,1.6-.113l1.932,1.449a.381.381,0,0,0,.609-.3V65.507a.762.762,0,0,1,1.523,0V71.22a.381.381,0,0,0,.762,0v-1.9a.762.762,0,1,1,1.523,0v1.9a.381.381,0,0,0,.762,0V70.077a.762.762,0,0,1,1.523,0V71.22a.381.381,0,0,0,.762,0v-.381a.762.762,0,0,1,1.523,0Z" transform="translate(-72.832 -63.984)" fill="#707070"/>
      </g>
    </g>
  </g>
</svg>
