<svg xmlns="http://www.w3.org/2000/svg" width="59.195" height="59.195" viewBox="0 0 59.195 59.195">
  <path id="Icon_ionic-logo-whatsapp" data-name="Icon ionic-logo-whatsapp" d="M32.384,2.25A28.948,28.948,0,0,0,3.325,31.086a28.538,28.538,0,0,0,4.17,14.89L2.25,61.445l16.089-5.111A29.109,29.109,0,0,0,61.445,31.086,28.948,28.948,0,0,0,32.384,2.25Zm14.45,39.786c-.684,1.695-3.776,3.242-5.14,3.313s-1.4,1.056-8.832-2.171S20.964,32.1,20.612,31.594s-2.878-4.1-2.742-7.724A8.234,8.234,0,0,1,20.7,17.828a2.846,2.846,0,0,1,2.013-.847c.585-.01.964-.017,1.4,0s1.082-.091,1.645,1.406,1.908,5.173,2.081,5.548a1.346,1.346,0,0,1,.013,1.291,5.047,5.047,0,0,1-.788,1.2c-.388.416-.816.93-1.162,1.249-.386.352-.789.736-.383,1.489a22.237,22.237,0,0,0,3.935,5.25,20.275,20.275,0,0,0,5.827,3.874c.729.4,1.164.353,1.615-.123s1.934-2.081,2.457-2.8,1.012-.578,1.684-.308,4.249,2.188,4.978,2.583,1.215.6,1.389.912A6.1,6.1,0,0,1,46.835,42.036Z" transform="translate(-2.25 -2.25)" fill="#fff"/>
</svg>
